<?xml version="1.0" encoding="utf-8" standalone="no"?>
<!DOCTYPE svg PUBLIC "-//W3C//DTD SVG 1.1//EN"
  "http://www.w3.org/Graphics/SVG/1.1/DTD/svg11.dtd">
<!-- Created with matplotlib (http://matplotlib.org/) -->
<svg height="172.8pt" version="1.1" viewBox="0 0 180 172.8" width="180pt" xmlns="http://www.w3.org/2000/svg" xmlns:xlink="http://www.w3.org/1999/xlink">
 <defs>
  <style type="text/css">
*{stroke-linecap:butt;stroke-linejoin:round;}
  </style>
 </defs>
 <g id="figure_1">
  <g id="patch_1">
   <path d="M 0 172.8 
L 180 172.8 
L 180 0 
L 0 0 
z
" style="fill:#ffffff;"/>
  </g>
  <g id="axes_1">
   <g id="patch_2">
    <path d="M 29.864646 145.905354 
L 177.165354 145.905354 
L 177.165354 4.274646 
L 29.864646 4.274646 
z
" style="fill:#ffffff;"/>
   </g>
   <g id="line2d_1">
    <path clip-path="url(#pd5e7f8e2bc)" d="M 29.864646 142.4083 
L 31.46574 142.4083 
L 31.999439 140.659773 
L 33.066835 140.659773 
L 33.600533 138.911245 
L 38.403817 138.911245 
L 38.937515 137.162718 
L 44.808196 137.162718 
L 45.341894 135.414191 
L 50.145178 135.414191 
L 50.678876 133.665663 
L 58.150651 133.665663 
L 58.68435 131.917136 
L 66.156125 131.917136 
L 66.689823 130.168609 
L 72.560503 130.168609 
L 73.094201 128.420082 
L 83.234468 128.420082 
L 83.768166 126.671554 
L 95.509527 126.671554 
L 96.043225 124.923027 
L 106.717189 124.923027 
L 107.250888 123.1745 
L 114.188964 123.1745 
L 114.722663 121.425973 
L 120.059645 121.425973 
L 120.593343 119.677445 
L 127.53142 119.677445 
L 128.065118 117.928918 
L 135.003195 117.928918 
L 135.536893 116.180391 
L 139.272781 116.180391 
L 139.806479 114.431864 
L 144.076065 114.431864 
L 144.609763 112.683336 
L 147.278254 112.683336 
L 147.811952 110.934809 
L 151.014142 110.934809 
L 151.54784 109.186282 
L 154.216331 109.186282 
L 154.750029 107.437754 
L 160.087011 107.437754 
L 161.154408 103.9407 
L 163.822899 103.9407 
L 164.356597 100.443645 
L 165.423993 100.443645 
L 165.957692 98.695118 
L 166.49139 98.695118 
L 167.025088 96.946591 
L 167.558786 93.449536 
L 168.092485 91.701009 
L 169.159881 91.701009 
L 169.693579 89.952482 
L 170.227277 86.455427 
L 171.294674 82.958373 
L 171.828372 63.724573 
L 172.36207 58.478991 
L 172.895769 54.981936 
L 173.429467 54.981936 
L 173.963165 53.233409 
L 175.030561 53.233409 
L 176.097958 49.736355 
L 176.631656 14.765809 
L 177.165354 11.268755 
L 177.165354 11.268755 
" style="fill:none;stroke:#808080;stroke-linecap:round;stroke-width:3.5;"/>
   </g>
   <g id="matplotlib.axis_1">
    <g id="xtick_1">
     <g id="line2d_2">
      <defs>
       <path d="M 0 0 
L 0 -3.5 
" id="m7c57fb038b" style="stroke:#000000;stroke-width:0.8;"/>
      </defs>
      <g>
       <use style="stroke:#000000;stroke-width:0.8;" x="56.015858" xlink:href="#m7c57fb038b" y="145.905354"/>
      </g>
     </g>
     <g id="text_1">
      <!-- 50 -->
      <defs>
       <path d="M 10.796875 72.90625 
L 49.515625 72.90625 
L 49.515625 64.59375 
L 19.828125 64.59375 
L 19.828125 46.734375 
Q 21.96875 47.46875 24.109375 47.828125 
Q 26.265625 48.1875 28.421875 48.1875 
Q 40.625 48.1875 47.75 41.5 
Q 54.890625 34.8125 54.890625 23.390625 
Q 54.890625 11.625 47.5625 5.09375 
Q 40.234375 -1.421875 26.90625 -1.421875 
Q 22.3125 -1.421875 17.546875 -0.640625 
Q 12.796875 0.140625 7.71875 1.703125 
L 7.71875 11.625 
Q 12.109375 9.234375 16.796875 8.0625 
Q 21.484375 6.890625 26.703125 6.890625 
Q 35.15625 6.890625 40.078125 11.328125 
Q 45.015625 15.765625 45.015625 23.390625 
Q 45.015625 31 40.078125 35.4375 
Q 35.15625 39.890625 26.703125 39.890625 
Q 22.75 39.890625 18.8125 39.015625 
Q 14.890625 38.140625 10.796875 36.28125 
z
" id="DejaVuSans-35"/>
       <path d="M 31.78125 66.40625 
Q 24.171875 66.40625 20.328125 58.90625 
Q 16.5 51.421875 16.5 36.375 
Q 16.5 21.390625 20.328125 13.890625 
Q 24.171875 6.390625 31.78125 6.390625 
Q 39.453125 6.390625 43.28125 13.890625 
Q 47.125 21.390625 47.125 36.375 
Q 47.125 51.421875 43.28125 58.90625 
Q 39.453125 66.40625 31.78125 66.40625 
z
M 31.78125 74.21875 
Q 44.046875 74.21875 50.515625 64.515625 
Q 56.984375 54.828125 56.984375 36.375 
Q 56.984375 17.96875 50.515625 8.265625 
Q 44.046875 -1.421875 31.78125 -1.421875 
Q 19.53125 -1.421875 13.0625 8.265625 
Q 6.59375 17.96875 6.59375 36.375 
Q 6.59375 54.828125 13.0625 64.515625 
Q 19.53125 74.21875 31.78125 74.21875 
z
" id="DejaVuSans-30"/>
      </defs>
      <g transform="translate(50.925858 155.484104)scale(0.08 -0.08)">
       <use xlink:href="#DejaVuSans-35"/>
       <use x="63.623047" xlink:href="#DejaVuSans-30"/>
      </g>
     </g>
    </g>
    <g id="xtick_2">
     <g id="line2d_3">
      <g>
       <use style="stroke:#000000;stroke-width:0.8;" x="82.700769" xlink:href="#m7c57fb038b" y="145.905354"/>
      </g>
     </g>
     <g id="text_2">
      <!-- 100 -->
      <defs>
       <path d="M 12.40625 8.296875 
L 28.515625 8.296875 
L 28.515625 63.921875 
L 10.984375 60.40625 
L 10.984375 69.390625 
L 28.421875 72.90625 
L 38.28125 72.90625 
L 38.28125 8.296875 
L 54.390625 8.296875 
L 54.390625 0 
L 12.40625 0 
z
" id="DejaVuSans-31"/>
      </defs>
      <g transform="translate(75.065769 155.484104)scale(0.08 -0.08)">
       <use xlink:href="#DejaVuSans-31"/>
       <use x="63.623047" xlink:href="#DejaVuSans-30"/>
       <use x="127.246094" xlink:href="#DejaVuSans-30"/>
      </g>
     </g>
    </g>
    <g id="xtick_3">
     <g id="line2d_4">
      <g>
       <use style="stroke:#000000;stroke-width:0.8;" x="109.38568" xlink:href="#m7c57fb038b" y="145.905354"/>
      </g>
     </g>
     <g id="text_3">
      <!-- 150 -->
      <g transform="translate(101.75068 155.484104)scale(0.08 -0.08)">
       <use xlink:href="#DejaVuSans-31"/>
       <use x="63.623047" xlink:href="#DejaVuSans-35"/>
       <use x="127.246094" xlink:href="#DejaVuSans-30"/>
      </g>
     </g>
    </g>
    <g id="xtick_4">
     <g id="line2d_5">
      <g>
       <use style="stroke:#000000;stroke-width:0.8;" x="136.070591" xlink:href="#m7c57fb038b" y="145.905354"/>
      </g>
     </g>
     <g id="text_4">
      <!-- 200 -->
      <defs>
       <path d="M 19.1875 8.296875 
L 53.609375 8.296875 
L 53.609375 0 
L 7.328125 0 
L 7.328125 8.296875 
Q 12.9375 14.109375 22.625 23.890625 
Q 32.328125 33.6875 34.8125 36.53125 
Q 39.546875 41.84375 41.421875 45.53125 
Q 43.3125 49.21875 43.3125 52.78125 
Q 43.3125 58.59375 39.234375 62.25 
Q 35.15625 65.921875 28.609375 65.921875 
Q 23.96875 65.921875 18.8125 64.3125 
Q 13.671875 62.703125 7.8125 59.421875 
L 7.8125 69.390625 
Q 13.765625 71.78125 18.9375 73 
Q 24.125 74.21875 28.421875 74.21875 
Q 39.75 74.21875 46.484375 68.546875 
Q 53.21875 62.890625 53.21875 53.421875 
Q 53.21875 48.921875 51.53125 44.890625 
Q 49.859375 40.875 45.40625 35.40625 
Q 44.1875 33.984375 37.640625 27.21875 
Q 31.109375 20.453125 19.1875 8.296875 
z
" id="DejaVuSans-32"/>
      </defs>
      <g transform="translate(128.435591 155.484104)scale(0.08 -0.08)">
       <use xlink:href="#DejaVuSans-32"/>
       <use x="63.623047" xlink:href="#DejaVuSans-30"/>
       <use x="127.246094" xlink:href="#DejaVuSans-30"/>
      </g>
     </g>
    </g>
    <g id="xtick_5">
     <g id="line2d_6">
      <g>
       <use style="stroke:#000000;stroke-width:0.8;" x="162.755502" xlink:href="#m7c57fb038b" y="145.905354"/>
      </g>
     </g>
     <g id="text_5">
      <!-- 250 -->
      <g transform="translate(155.120502 155.484104)scale(0.08 -0.08)">
       <use xlink:href="#DejaVuSans-32"/>
       <use x="63.623047" xlink:href="#DejaVuSans-35"/>
       <use x="127.246094" xlink:href="#DejaVuSans-30"/>
      </g>
     </g>
    </g>
    <g id="text_6">
     <!-- vertex indices -->
     <defs>
      <path d="M 2.984375 54.6875 
L 12.5 54.6875 
L 29.59375 8.796875 
L 46.6875 54.6875 
L 56.203125 54.6875 
L 35.6875 0 
L 23.484375 0 
z
" id="DejaVuSans-76"/>
      <path d="M 56.203125 29.59375 
L 56.203125 25.203125 
L 14.890625 25.203125 
Q 15.484375 15.921875 20.484375 11.0625 
Q 25.484375 6.203125 34.421875 6.203125 
Q 39.59375 6.203125 44.453125 7.46875 
Q 49.3125 8.734375 54.109375 11.28125 
L 54.109375 2.78125 
Q 49.265625 0.734375 44.1875 -0.34375 
Q 39.109375 -1.421875 33.890625 -1.421875 
Q 20.796875 -1.421875 13.15625 6.1875 
Q 5.515625 13.8125 5.515625 26.8125 
Q 5.515625 40.234375 12.765625 48.109375 
Q 20.015625 56 32.328125 56 
Q 43.359375 56 49.78125 48.890625 
Q 56.203125 41.796875 56.203125 29.59375 
z
M 47.21875 32.234375 
Q 47.125 39.59375 43.09375 43.984375 
Q 39.0625 48.390625 32.421875 48.390625 
Q 24.90625 48.390625 20.390625 44.140625 
Q 15.875 39.890625 15.1875 32.171875 
z
" id="DejaVuSans-65"/>
      <path d="M 41.109375 46.296875 
Q 39.59375 47.171875 37.8125 47.578125 
Q 36.03125 48 33.890625 48 
Q 26.265625 48 22.1875 43.046875 
Q 18.109375 38.09375 18.109375 28.8125 
L 18.109375 0 
L 9.078125 0 
L 9.078125 54.6875 
L 18.109375 54.6875 
L 18.109375 46.1875 
Q 20.953125 51.171875 25.484375 53.578125 
Q 30.03125 56 36.53125 56 
Q 37.453125 56 38.578125 55.875 
Q 39.703125 55.765625 41.0625 55.515625 
z
" id="DejaVuSans-72"/>
      <path d="M 18.3125 70.21875 
L 18.3125 54.6875 
L 36.8125 54.6875 
L 36.8125 47.703125 
L 18.3125 47.703125 
L 18.3125 18.015625 
Q 18.3125 11.328125 20.140625 9.421875 
Q 21.96875 7.515625 27.59375 7.515625 
L 36.8125 7.515625 
L 36.8125 0 
L 27.59375 0 
Q 17.1875 0 13.234375 3.875 
Q 9.28125 7.765625 9.28125 18.015625 
L 9.28125 47.703125 
L 2.6875 47.703125 
L 2.6875 54.6875 
L 9.28125 54.6875 
L 9.28125 70.21875 
z
" id="DejaVuSans-74"/>
      <path d="M 54.890625 54.6875 
L 35.109375 28.078125 
L 55.90625 0 
L 45.3125 0 
L 29.390625 21.484375 
L 13.484375 0 
L 2.875 0 
L 24.125 28.609375 
L 4.6875 54.6875 
L 15.28125 54.6875 
L 29.78125 35.203125 
L 44.28125 54.6875 
z
" id="DejaVuSans-78"/>
      <path id="DejaVuSans-20"/>
      <path d="M 9.421875 54.6875 
L 18.40625 54.6875 
L 18.40625 0 
L 9.421875 0 
z
M 9.421875 75.984375 
L 18.40625 75.984375 
L 18.40625 64.59375 
L 9.421875 64.59375 
z
" id="DejaVuSans-69"/>
      <path d="M 54.890625 33.015625 
L 54.890625 0 
L 45.90625 0 
L 45.90625 32.71875 
Q 45.90625 40.484375 42.875 44.328125 
Q 39.84375 48.1875 33.796875 48.1875 
Q 26.515625 48.1875 22.3125 43.546875 
Q 18.109375 38.921875 18.109375 30.90625 
L 18.109375 0 
L 9.078125 0 
L 9.078125 54.6875 
L 18.109375 54.6875 
L 18.109375 46.1875 
Q 21.34375 51.125 25.703125 53.5625 
Q 30.078125 56 35.796875 56 
Q 45.21875 56 50.046875 50.171875 
Q 54.890625 44.34375 54.890625 33.015625 
z
" id="DejaVuSans-6e"/>
      <path d="M 45.40625 46.390625 
L 45.40625 75.984375 
L 54.390625 75.984375 
L 54.390625 0 
L 45.40625 0 
L 45.40625 8.203125 
Q 42.578125 3.328125 38.25 0.953125 
Q 33.9375 -1.421875 27.875 -1.421875 
Q 17.96875 -1.421875 11.734375 6.484375 
Q 5.515625 14.40625 5.515625 27.296875 
Q 5.515625 40.1875 11.734375 48.09375 
Q 17.96875 56 27.875 56 
Q 33.9375 56 38.25 53.625 
Q 42.578125 51.265625 45.40625 46.390625 
z
M 14.796875 27.296875 
Q 14.796875 17.390625 18.875 11.75 
Q 22.953125 6.109375 30.078125 6.109375 
Q 37.203125 6.109375 41.296875 11.75 
Q 45.40625 17.390625 45.40625 27.296875 
Q 45.40625 37.203125 41.296875 42.84375 
Q 37.203125 48.484375 30.078125 48.484375 
Q 22.953125 48.484375 18.875 42.84375 
Q 14.796875 37.203125 14.796875 27.296875 
z
" id="DejaVuSans-64"/>
      <path d="M 48.78125 52.59375 
L 48.78125 44.1875 
Q 44.96875 46.296875 41.140625 47.34375 
Q 37.3125 48.390625 33.40625 48.390625 
Q 24.65625 48.390625 19.8125 42.84375 
Q 14.984375 37.3125 14.984375 27.296875 
Q 14.984375 17.28125 19.8125 11.734375 
Q 24.65625 6.203125 33.40625 6.203125 
Q 37.3125 6.203125 41.140625 7.25 
Q 44.96875 8.296875 48.78125 10.40625 
L 48.78125 2.09375 
Q 45.015625 0.34375 40.984375 -0.53125 
Q 36.96875 -1.421875 32.421875 -1.421875 
Q 20.0625 -1.421875 12.78125 6.34375 
Q 5.515625 14.109375 5.515625 27.296875 
Q 5.515625 40.671875 12.859375 48.328125 
Q 20.21875 56 33.015625 56 
Q 37.15625 56 41.109375 55.140625 
Q 45.0625 54.296875 48.78125 52.59375 
z
" id="DejaVuSans-63"/>
      <path d="M 44.28125 53.078125 
L 44.28125 44.578125 
Q 40.484375 46.53125 36.375 47.5 
Q 32.28125 48.484375 27.875 48.484375 
Q 21.1875 48.484375 17.84375 46.4375 
Q 14.5 44.390625 14.5 40.28125 
Q 14.5 37.15625 16.890625 35.375 
Q 19.28125 33.59375 26.515625 31.984375 
L 29.59375 31.296875 
Q 39.15625 29.25 43.1875 25.515625 
Q 47.21875 21.78125 47.21875 15.09375 
Q 47.21875 7.46875 41.1875 3.015625 
Q 35.15625 -1.421875 24.609375 -1.421875 
Q 20.21875 -1.421875 15.453125 -0.5625 
Q 10.6875 0.296875 5.421875 2 
L 5.421875 11.28125 
Q 10.40625 8.6875 15.234375 7.390625 
Q 20.0625 6.109375 24.8125 6.109375 
Q 31.15625 6.109375 34.5625 8.28125 
Q 37.984375 10.453125 37.984375 14.40625 
Q 37.984375 18.0625 35.515625 20.015625 
Q 33.0625 21.96875 24.703125 23.78125 
L 21.578125 24.515625 
Q 13.234375 26.265625 9.515625 29.90625 
Q 5.8125 33.546875 5.8125 39.890625 
Q 5.8125 47.609375 11.28125 51.796875 
Q 16.75 56 26.8125 56 
Q 31.78125 56 36.171875 55.265625 
Q 40.578125 54.546875 44.28125 53.078125 
z
" id="DejaVuSans-73"/>
     </defs>
     <g transform="translate(64.764922 169.506136)scale(0.11 -0.11)">
      <use xlink:href="#DejaVuSans-76"/>
      <use x="59.179688" xlink:href="#DejaVuSans-65"/>
      <use x="120.703125" xlink:href="#DejaVuSans-72"/>
      <use x="161.816406" xlink:href="#DejaVuSans-74"/>
      <use x="201.025391" xlink:href="#DejaVuSans-65"/>
      <use x="262.533203" xlink:href="#DejaVuSans-78"/>
      <use x="321.712891" xlink:href="#DejaVuSans-20"/>
      <use x="353.5" xlink:href="#DejaVuSans-69"/>
      <use x="381.283203" xlink:href="#DejaVuSans-6e"/>
      <use x="444.662109" xlink:href="#DejaVuSans-64"/>
      <use x="508.138672" xlink:href="#DejaVuSans-69"/>
      <use x="535.921875" xlink:href="#DejaVuSans-63"/>
      <use x="590.902344" xlink:href="#DejaVuSans-65"/>
      <use x="652.425781" xlink:href="#DejaVuSans-73"/>
     </g>
    </g>
   </g>
   <g id="matplotlib.axis_2">
    <g id="ytick_1">
     <g id="line2d_7">
      <defs>
       <path d="M 0 0 
L 3.5 0 
" id="m8a2563b5c4" style="stroke:#000000;stroke-width:0.8;"/>
      </defs>
      <g>
       <use style="stroke:#000000;stroke-width:0.8;" x="29.864646" xlink:href="#m8a2563b5c4" y="144.156827"/>
      </g>
     </g>
     <g id="text_7">
      <!-- 0 -->
      <g transform="translate(21.274646 147.196202)scale(0.08 -0.08)">
       <use xlink:href="#DejaVuSans-30"/>
      </g>
     </g>
    </g>
    <g id="ytick_2">
     <g id="line2d_8">
      <g>
       <use style="stroke:#000000;stroke-width:0.8;" x="29.864646" xlink:href="#m8a2563b5c4" y="109.186282"/>
      </g>
     </g>
     <g id="text_8">
      <!-- 20 -->
      <g transform="translate(16.184646 112.225657)scale(0.08 -0.08)">
       <use xlink:href="#DejaVuSans-32"/>
       <use x="63.623047" xlink:href="#DejaVuSans-30"/>
      </g>
     </g>
    </g>
    <g id="ytick_3">
     <g id="line2d_9">
      <g>
       <use style="stroke:#000000;stroke-width:0.8;" x="29.864646" xlink:href="#m8a2563b5c4" y="74.215736"/>
      </g>
     </g>
     <g id="text_9">
      <!-- 40 -->
      <defs>
       <path d="M 37.796875 64.3125 
L 12.890625 25.390625 
L 37.796875 25.390625 
z
M 35.203125 72.90625 
L 47.609375 72.90625 
L 47.609375 25.390625 
L 58.015625 25.390625 
L 58.015625 17.1875 
L 47.609375 17.1875 
L 47.609375 0 
L 37.796875 0 
L 37.796875 17.1875 
L 4.890625 17.1875 
L 4.890625 26.703125 
z
" id="DejaVuSans-34"/>
      </defs>
      <g transform="translate(16.184646 77.255111)scale(0.08 -0.08)">
       <use xlink:href="#DejaVuSans-34"/>
       <use x="63.623047" xlink:href="#DejaVuSans-30"/>
      </g>
     </g>
    </g>
    <g id="ytick_4">
     <g id="line2d_10">
      <g>
       <use style="stroke:#000000;stroke-width:0.8;" x="29.864646" xlink:href="#m8a2563b5c4" y="39.245191"/>
      </g>
     </g>
     <g id="text_10">
      <!-- 60 -->
      <defs>
       <path d="M 33.015625 40.375 
Q 26.375 40.375 22.484375 35.828125 
Q 18.609375 31.296875 18.609375 23.390625 
Q 18.609375 15.53125 22.484375 10.953125 
Q 26.375 6.390625 33.015625 6.390625 
Q 39.65625 6.390625 43.53125 10.953125 
Q 47.40625 15.53125 47.40625 23.390625 
Q 47.40625 31.296875 43.53125 35.828125 
Q 39.65625 40.375 33.015625 40.375 
z
M 52.59375 71.296875 
L 52.59375 62.3125 
Q 48.875 64.0625 45.09375 64.984375 
Q 41.3125 65.921875 37.59375 65.921875 
Q 27.828125 65.921875 22.671875 59.328125 
Q 17.53125 52.734375 16.796875 39.40625 
Q 19.671875 43.65625 24.015625 45.921875 
Q 28.375 48.1875 33.59375 48.1875 
Q 44.578125 48.1875 50.953125 41.515625 
Q 57.328125 34.859375 57.328125 23.390625 
Q 57.328125 12.15625 50.6875 5.359375 
Q 44.046875 -1.421875 33.015625 -1.421875 
Q 20.359375 -1.421875 13.671875 8.265625 
Q 6.984375 17.96875 6.984375 36.375 
Q 6.984375 53.65625 15.1875 63.9375 
Q 23.390625 74.21875 37.203125 74.21875 
Q 40.921875 74.21875 44.703125 73.484375 
Q 48.484375 72.75 52.59375 71.296875 
z
" id="DejaVuSans-36"/>
      </defs>
      <g transform="translate(16.184646 42.284566)scale(0.08 -0.08)">
       <use xlink:href="#DejaVuSans-36"/>
       <use x="63.623047" xlink:href="#DejaVuSans-30"/>
      </g>
     </g>
    </g>
    <g id="ytick_5">
     <g id="line2d_11">
      <g>
       <use style="stroke:#000000;stroke-width:0.8;" x="29.864646" xlink:href="#m8a2563b5c4" y="4.274646"/>
      </g>
     </g>
     <g id="text_11">
      <!-- 80 -->
      <defs>
       <path d="M 31.78125 34.625 
Q 24.75 34.625 20.71875 30.859375 
Q 16.703125 27.09375 16.703125 20.515625 
Q 16.703125 13.921875 20.71875 10.15625 
Q 24.75 6.390625 31.78125 6.390625 
Q 38.8125 6.390625 42.859375 10.171875 
Q 46.921875 13.96875 46.921875 20.515625 
Q 46.921875 27.09375 42.890625 30.859375 
Q 38.875 34.625 31.78125 34.625 
z
M 21.921875 38.8125 
Q 15.578125 40.375 12.03125 44.71875 
Q 8.5 49.078125 8.5 55.328125 
Q 8.5 64.0625 14.71875 69.140625 
Q 20.953125 74.21875 31.78125 74.21875 
Q 42.671875 74.21875 48.875 69.140625 
Q 55.078125 64.0625 55.078125 55.328125 
Q 55.078125 49.078125 51.53125 44.71875 
Q 48 40.375 41.703125 38.8125 
Q 48.828125 37.15625 52.796875 32.3125 
Q 56.78125 27.484375 56.78125 20.515625 
Q 56.78125 9.90625 50.3125 4.234375 
Q 43.84375 -1.421875 31.78125 -1.421875 
Q 19.734375 -1.421875 13.25 4.234375 
Q 6.78125 9.90625 6.78125 20.515625 
Q 6.78125 27.484375 10.78125 32.3125 
Q 14.796875 37.15625 21.921875 38.8125 
z
M 18.3125 54.390625 
Q 18.3125 48.734375 21.84375 45.5625 
Q 25.390625 42.390625 31.78125 42.390625 
Q 38.140625 42.390625 41.71875 45.5625 
Q 45.3125 48.734375 45.3125 54.390625 
Q 45.3125 60.0625 41.71875 63.234375 
Q 38.140625 66.40625 31.78125 66.40625 
Q 25.390625 66.40625 21.84375 63.234375 
Q 18.3125 60.0625 18.3125 54.390625 
z
" id="DejaVuSans-38"/>
      </defs>
      <g transform="translate(16.184646 7.314021)scale(0.08 -0.08)">
       <use xlink:href="#DejaVuSans-38"/>
       <use x="63.623047" xlink:href="#DejaVuSans-30"/>
      </g>
     </g>
    </g>
    <g id="text_12">
     <!-- expected degrees -->
     <defs>
      <path d="M 18.109375 8.203125 
L 18.109375 -20.796875 
L 9.078125 -20.796875 
L 9.078125 54.6875 
L 18.109375 54.6875 
L 18.109375 46.390625 
Q 20.953125 51.265625 25.265625 53.625 
Q 29.59375 56 35.59375 56 
Q 45.5625 56 51.78125 48.09375 
Q 58.015625 40.1875 58.015625 27.296875 
Q 58.015625 14.40625 51.78125 6.484375 
Q 45.5625 -1.421875 35.59375 -1.421875 
Q 29.59375 -1.421875 25.265625 0.953125 
Q 20.953125 3.328125 18.109375 8.203125 
z
M 48.6875 27.296875 
Q 48.6875 37.203125 44.609375 42.84375 
Q 40.53125 48.484375 33.40625 48.484375 
Q 26.265625 48.484375 22.1875 42.84375 
Q 18.109375 37.203125 18.109375 27.296875 
Q 18.109375 17.390625 22.1875 11.75 
Q 26.265625 6.109375 33.40625 6.109375 
Q 40.53125 6.109375 44.609375 11.75 
Q 48.6875 17.390625 48.6875 27.296875 
z
" id="DejaVuSans-70"/>
      <path d="M 45.40625 27.984375 
Q 45.40625 37.75 41.375 43.109375 
Q 37.359375 48.484375 30.078125 48.484375 
Q 22.859375 48.484375 18.828125 43.109375 
Q 14.796875 37.75 14.796875 27.984375 
Q 14.796875 18.265625 18.828125 12.890625 
Q 22.859375 7.515625 30.078125 7.515625 
Q 37.359375 7.515625 41.375 12.890625 
Q 45.40625 18.265625 45.40625 27.984375 
z
M 54.390625 6.78125 
Q 54.390625 -7.171875 48.1875 -13.984375 
Q 42 -20.796875 29.203125 -20.796875 
Q 24.46875 -20.796875 20.265625 -20.09375 
Q 16.0625 -19.390625 12.109375 -17.921875 
L 12.109375 -9.1875 
Q 16.0625 -11.328125 19.921875 -12.34375 
Q 23.78125 -13.375 27.78125 -13.375 
Q 36.625 -13.375 41.015625 -8.765625 
Q 45.40625 -4.15625 45.40625 5.171875 
L 45.40625 9.625 
Q 42.625 4.78125 38.28125 2.390625 
Q 33.9375 0 27.875 0 
Q 17.828125 0 11.671875 7.65625 
Q 5.515625 15.328125 5.515625 27.984375 
Q 5.515625 40.671875 11.671875 48.328125 
Q 17.828125 56 27.875 56 
Q 33.9375 56 38.28125 53.609375 
Q 42.625 51.21875 45.40625 46.390625 
L 45.40625 54.6875 
L 54.390625 54.6875 
z
" id="DejaVuSans-67"/>
     </defs>
     <g transform="translate(9.896989 124.669062)rotate(-90)scale(0.11 -0.11)">
      <use xlink:href="#DejaVuSans-65"/>
      <use x="61.507812" xlink:href="#DejaVuSans-78"/>
      <use x="120.6875" xlink:href="#DejaVuSans-70"/>
      <use x="184.164062" xlink:href="#DejaVuSans-65"/>
      <use x="245.6875" xlink:href="#DejaVuSans-63"/>
      <use x="300.667969" xlink:href="#DejaVuSans-74"/>
      <use x="339.876953" xlink:href="#DejaVuSans-65"/>
      <use x="401.400391" xlink:href="#DejaVuSans-64"/>
      <use x="464.876953" xlink:href="#DejaVuSans-20"/>
      <use x="496.664062" xlink:href="#DejaVuSans-64"/>
      <use x="560.140625" xlink:href="#DejaVuSans-65"/>
      <use x="621.664062" xlink:href="#DejaVuSans-67"/>
      <use x="685.140625" xlink:href="#DejaVuSans-72"/>
      <use x="726.222656" xlink:href="#DejaVuSans-65"/>
      <use x="787.746094" xlink:href="#DejaVuSans-65"/>
      <use x="849.269531" xlink:href="#DejaVuSans-73"/>
     </g>
    </g>
   </g>
   <g id="line2d_12">
    <path clip-path="url(#pd5e7f8e2bc)" d="M 29.864646 142.180335 
L 30.398344 142.230811 
L 30.932042 141.917753 
L 31.46574 142.252841 
L 31.999439 140.594673 
L 32.533137 140.580401 
L 33.066835 140.741159 
L 33.600533 139.009928 
L 34.66793 138.896948 
L 35.735326 138.942659 
L 38.403817 138.862798 
L 38.937515 137.31526 
L 41.072308 137.057993 
L 41.606007 137.134612 
L 42.139705 137.087764 
L 42.673403 137.259861 
L 43.207101 136.890637 
L 43.740799 137.173948 
L 44.274498 137.041677 
L 44.808196 137.04894 
L 45.341894 135.437422 
L 45.875592 135.550685 
L 46.942989 135.318034 
L 47.476687 135.543965 
L 48.010385 135.396621 
L 49.077782 135.558152 
L 49.61148 135.219827 
L 50.145178 135.081675 
L 50.678876 133.36865 
L 51.212574 133.65731 
L 52.279971 133.803425 
L 53.881066 133.619475 
L 54.414764 133.611192 
L 54.948462 133.862929 
L 55.48216 133.751323 
L 56.549557 133.706189 
L 57.083255 133.669433 
L 57.616953 133.820971 
L 58.150651 133.719704 
L 58.68435 132.088495 
L 61.352841 131.905957 
L 61.886539 132.047976 
L 64.55503 131.951377 
L 65.088728 131.801262 
L 66.156125 131.893155 
L 66.689823 130.270607 
L 67.223521 130.506867 
L 68.290917 130.29513 
L 68.824616 130.278441 
L 69.358314 130.149784 
L 69.892012 130.352101 
L 70.42571 130.401693 
L 70.959409 130.184057 
L 72.026805 130.276741 
L 72.560503 130.26571 
L 73.094201 128.448363 
L 73.6279 128.432013 
L 74.695296 128.576347 
L 77.363787 128.791862 
L 77.897485 128.416632 
L 78.431184 128.597164 
L 80.032278 128.635286 
L 80.565977 128.456551 
L 81.099675 128.597542 
L 81.633373 128.44402 
L 82.167071 128.68559 
L 82.700769 128.570691 
L 83.234468 128.576804 
L 83.768166 126.870712 
L 84.835562 126.623146 
L 85.902959 126.864208 
L 86.436657 126.747185 
L 87.504053 126.787899 
L 88.037752 127.109901 
L 88.57145 126.869732 
L 89.638846 126.885434 
L 90.172545 127.00557 
L 90.706243 126.788744 
L 91.773639 126.671803 
L 92.307337 126.874205 
L 93.374734 126.809033 
L 95.509527 126.829535 
L 96.043225 125.186802 
L 96.576923 125.093406 
L 97.110621 124.75676 
L 97.64432 125.100092 
L 98.178018 124.702587 
L 98.711716 125.06289 
L 100.312811 125.082715 
L 100.846509 124.936195 
L 101.380207 125.111376 
L 102.447604 124.746045 
L 102.981302 125.091459 
L 103.515 125.105693 
L 104.048698 124.903689 
L 104.582396 124.82109 
L 105.116095 125.108791 
L 105.649793 124.969128 
L 106.717189 125.031708 
L 107.250888 123.258643 
L 109.919379 123.242251 
L 110.453077 123.46901 
L 110.986775 123.312545 
L 111.520473 123.345633 
L 112.054172 123.213996 
L 112.58787 123.546152 
L 113.121568 123.055921 
L 113.655266 123.427508 
L 114.188964 123.180744 
L 114.722663 121.573511 
L 115.256361 121.48965 
L 115.790059 121.246056 
L 116.323757 121.461098 
L 118.992248 121.676631 
L 119.525947 121.32342 
L 120.059645 121.460873 
L 120.593343 119.683618 
L 125.396627 119.692607 
L 125.930325 120.084484 
L 126.464023 119.644373 
L 127.53142 119.693203 
L 128.065118 117.938531 
L 129.132515 118.11276 
L 129.666213 117.950833 
L 131.267307 117.948539 
L 131.801006 118.150474 
L 134.469497 117.944194 
L 135.003195 117.950674 
L 135.536893 116.205168 
L 138.205384 116.202116 
L 138.739083 116.306767 
L 139.272781 116.205428 
L 139.806479 114.459827 
L 140.340177 114.695222 
L 140.873875 114.473761 
L 141.407574 114.449936 
L 141.941272 114.708403 
L 142.47497 114.445216 
L 144.076065 114.469482 
L 144.609763 112.703664 
L 147.278254 112.739812 
L 147.811952 110.942611 
L 151.014142 110.954381 
L 151.54784 109.198097 
L 152.081538 109.25417 
L 153.682633 109.179451 
L 154.216331 109.175856 
L 154.750029 107.416287 
L 157.952218 107.505927 
L 159.019615 107.416551 
L 159.553313 107.514455 
L 160.087011 107.47533 
L 161.154408 103.906426 
L 163.289201 103.956997 
L 163.822899 103.952987 
L 164.356597 100.49754 
L 164.890295 100.287713 
L 165.423993 100.457355 
L 165.957692 98.710288 
L 166.49139 98.430717 
L 167.025088 97.079035 
L 167.558786 93.639327 
L 168.092485 91.926847 
L 168.626183 91.206575 
L 169.159881 91.920722 
L 169.693579 90.211412 
L 170.227277 86.737535 
L 170.760976 84.30449 
L 171.294674 83.186069 
L 171.828372 64.105709 
L 172.36207 58.48092 
L 172.895769 55.040982 
L 173.429467 55.248201 
L 173.963165 53.32281 
L 175.030561 53.399587 
L 176.097958 49.859193 
L 176.631656 14.804772 
L 177.165354 11.230536 
L 177.165354 11.230536 
" style="fill:none;stroke:#0000ff;stroke-linecap:round;stroke-width:2;"/>
   </g>
   <g id="patch_3">
    <path d="M 29.864646 145.905354 
L 29.864646 4.274646 
" style="fill:none;stroke:#000000;stroke-linecap:square;stroke-linejoin:miter;"/>
   </g>
   <g id="patch_4">
    <path d="M 177.165354 145.905354 
L 177.165354 4.274646 
" style="fill:none;stroke:#000000;stroke-linecap:square;stroke-linejoin:miter;stroke-width:0.8;"/>
   </g>
   <g id="patch_5">
    <path d="M 29.864646 145.905354 
L 177.165354 145.905354 
" style="fill:none;stroke:#000000;stroke-linecap:square;stroke-linejoin:miter;"/>
   </g>
   <g id="patch_6">
    <path d="M 29.864646 4.274646 
L 177.165354 4.274646 
" style="fill:none;stroke:#000000;stroke-linecap:square;stroke-linejoin:miter;stroke-width:0.8;"/>
   </g>
   <g id="line2d_13">
    <path clip-path="url(#pd5e7f8e2bc)" d="M 29.864646 142.181088 
L 30.398344 142.215892 
L 30.932042 141.930683 
L 31.46574 142.240518 
L 31.999439 140.597887 
L 32.533137 140.593456 
L 33.066835 140.76953 
L 33.600533 139.007456 
L 34.66793 138.916385 
L 38.403817 138.913993 
L 38.937515 137.302243 
L 39.471214 137.260075 
L 40.004912 137.072308 
L 41.072308 137.039501 
L 42.139705 137.01995 
L 42.673403 137.290976 
L 43.207101 137.065263 
L 44.808196 137.04702 
L 45.341894 135.524242 
L 46.40929 135.515744 
L 46.942989 135.272832 
L 47.476687 135.469845 
L 49.077782 135.496107 
L 49.61148 135.223416 
L 50.145178 135.276821 
L 50.678876 133.53234 
L 51.212574 133.567361 
L 51.746273 133.756609 
L 53.347367 133.763935 
L 53.881066 133.541018 
L 54.414764 133.525838 
L 54.948462 133.73087 
L 56.549557 133.761894 
L 58.150651 133.713522 
L 58.68435 131.992392 
L 63.487634 131.971644 
L 65.088728 131.910827 
L 66.156125 131.917633 
L 66.689823 130.270607 
L 67.757219 130.235481 
L 68.290917 130.29513 
L 69.358314 130.228482 
L 72.560503 130.26571 
L 73.094201 128.455092 
L 74.161598 128.542267 
L 74.695296 128.461898 
L 75.228994 128.612139 
L 75.762693 128.607049 
L 76.296391 128.48502 
L 77.897485 128.481634 
L 78.431184 128.597164 
L 79.49858 128.597063 
L 80.032278 128.473153 
L 80.565977 128.466277 
L 81.099675 128.597542 
L 81.633373 128.480692 
L 83.234468 128.576804 
L 83.768166 126.870712 
L 85.369261 126.687312 
L 88.037752 126.731489 
L 88.57145 126.869732 
L 89.638846 126.885434 
L 90.172545 126.704069 
L 91.773639 126.696149 
L 92.307337 126.874205 
L 93.374734 126.809033 
L 95.509527 126.829535 
L 96.043225 124.944705 
L 96.576923 125.093406 
L 97.110621 124.931264 
L 98.711716 124.946103 
L 99.245414 125.094944 
L 99.779112 125.097715 
L 100.312811 124.95722 
L 100.846509 124.963291 
L 101.380207 125.111376 
L 101.913905 124.946347 
L 102.447604 124.95522 
L 102.981302 125.091459 
L 103.515 125.105693 
L 104.048698 124.934441 
L 105.649793 124.956553 
L 106.717189 125.031708 
L 107.250888 123.183612 
L 108.318284 123.243095 
L 110.453077 123.189799 
L 110.986775 123.312545 
L 111.520473 123.184972 
L 114.188964 123.19781 
L 114.722663 121.429418 
L 120.059645 121.460873 
L 120.593343 119.683618 
L 127.53142 119.693203 
L 128.065118 117.938531 
L 134.469497 117.944194 
L 135.003195 117.950674 
L 135.536893 116.205168 
L 139.272781 116.205428 
L 139.806479 114.459827 
L 144.076065 114.469482 
L 144.609763 112.703664 
L 147.278254 112.739812 
L 147.811952 110.942611 
L 151.014142 110.954381 
L 151.54784 109.198097 
L 152.081538 109.25417 
L 153.682633 109.179451 
L 154.216331 109.175856 
L 154.750029 107.416287 
L 157.952218 107.505927 
L 159.019615 107.416551 
L 159.553313 107.514455 
L 160.087011 107.47533 
L 161.154408 103.906426 
L 163.289201 103.956997 
L 163.822899 103.952987 
L 164.356597 100.49754 
L 164.890295 100.287713 
L 165.423993 100.457355 
L 165.957692 98.710288 
L 166.49139 98.430717 
L 167.025088 97.079035 
L 167.558786 93.639327 
L 168.092485 91.926847 
L 168.626183 91.206575 
L 169.159881 91.920722 
L 169.693579 90.211412 
L 170.227277 86.737535 
L 170.760976 84.30449 
L 171.294674 83.186069 
L 171.828372 64.105709 
L 172.36207 58.48092 
L 172.895769 55.040982 
L 173.429467 55.248201 
L 173.963165 53.32281 
L 175.030561 53.399587 
L 176.097958 49.859193 
L 176.631656 14.804772 
L 177.165354 11.230536 
L 177.165354 11.230536 
" style="fill:none;stroke:#ffa500;stroke-linecap:round;"/>
   </g>
   <g id="line2d_14">
    <path clip-path="url(#pd5e7f8e2bc)" d="M 29.864646 144.157579 
L 32.533137 144.169881 
L 34.66793 144.176264 
L 35.735326 144.136091 
L 36.269024 144.197842 
L 37.336421 144.066824 
L 38.403817 144.208022 
L 40.004912 144.105479 
L 42.139705 144.089014 
L 43.207101 144.331453 
L 43.740799 144.040869 
L 45.341894 144.243647 
L 45.875592 144.132094 
L 46.40929 144.219047 
L 47.476687 144.082707 
L 48.010385 144.275761 
L 49.077782 144.094782 
L 49.61148 144.160416 
L 50.145178 144.351973 
L 50.678876 144.320517 
L 51.212574 144.066879 
L 51.746273 144.181273 
L 52.279971 144.115439 
L 53.347367 144.207236 
L 53.881066 144.07837 
L 54.948462 144.024769 
L 55.48216 144.170673 
L 56.015858 144.11382 
L 57.083255 144.199866 
L 57.616953 144.049067 
L 58.150651 144.150645 
L 58.68435 144.060725 
L 59.751746 144.205598 
L 60.285444 144.004848 
L 61.352841 144.226168 
L 61.886539 144.074928 
L 62.420237 144.042408 
L 62.953935 144.139255 
L 64.55503 144.118278 
L 65.088728 144.266392 
L 66.689823 144.156827 
L 67.223521 143.888779 
L 68.290917 144.156827 
L 68.824616 144.106056 
L 69.358314 144.235525 
L 69.892012 144.048547 
L 70.42571 143.994468 
L 70.959409 144.20154 
L 72.026805 144.156827 
L 74.161598 144.156827 
L 74.695296 144.042378 
L 75.228994 144.156827 
L 75.762693 144.156827 
L 76.296391 143.955897 
L 76.830089 143.980601 
L 77.363787 143.858297 
L 77.897485 144.221829 
L 78.964882 144.156827 
L 79.49858 144.156827 
L 80.032278 143.994695 
L 80.565977 144.166553 
L 81.633373 144.193499 
L 82.167071 143.956743 
L 82.700769 144.156827 
L 85.369261 144.101864 
L 85.902959 143.987136 
L 86.970355 144.101333 
L 87.504053 144.079234 
L 88.037752 143.778415 
L 88.57145 144.156827 
L 89.638846 144.156827 
L 90.172545 143.855326 
L 90.706243 144.06238 
L 92.307337 144.156827 
L 95.509527 144.156827 
L 96.043225 143.91473 
L 97.110621 144.331332 
L 97.64432 143.990573 
L 98.178018 144.39385 
L 98.711716 144.040041 
L 99.245414 144.156827 
L 99.779112 144.156827 
L 100.312811 144.031332 
L 100.846509 144.183923 
L 101.913905 144.162788 
L 102.447604 144.366002 
L 102.981302 144.156827 
L 104.048698 144.18758 
L 104.582396 144.269515 
L 105.116095 143.98407 
L 105.649793 144.144253 
L 109.919379 144.156827 
L 110.453077 143.877616 
L 110.986775 144.156827 
L 111.520473 143.996166 
L 112.054172 144.134422 
L 112.58787 143.795081 
L 113.121568 144.292753 
L 113.655266 143.909095 
L 114.188964 144.173893 
L 114.722663 144.012734 
L 115.256361 144.098666 
L 115.790059 144.356856 
L 116.323757 144.156827 
L 117.391154 144.156827 
L 117.924852 143.95398 
L 118.992248 143.911778 
L 119.525947 144.277834 
L 120.059645 144.156827 
L 125.396627 144.156827 
L 125.930325 143.757124 
L 126.464023 144.204694 
L 129.132515 143.988493 
L 129.666213 144.156827 
L 131.267307 144.156827 
L 131.801006 143.958037 
L 134.469497 144.156827 
L 139.806479 144.156827 
L 140.340177 143.920235 
L 140.873875 144.156827 
L 141.407574 144.156827 
L 141.941272 143.907142 
L 142.47497 144.156827 
L 177.165354 144.156827 
L 177.165354 144.156827 
" style="fill:none;stroke:#ff0000;stroke-linecap:round;"/>
   </g>
   <g id="legend_1">
    <g id="patch_7">
     <path d="M 35.464646 57.644646 
L 125.888396 57.644646 
Q 127.488396 57.644646 127.488396 56.044646 
L 127.488396 9.874646 
Q 127.488396 8.274646 125.888396 8.274646 
L 35.464646 8.274646 
Q 33.864646 8.274646 33.864646 9.874646 
L 33.864646 56.044646 
Q 33.864646 57.644646 35.464646 57.644646 
z
" style="fill:#ffffff;stroke:#000000;stroke-linejoin:miter;"/>
    </g>
    <g id="line2d_15">
     <path d="M 37.064646 14.753396 
L 53.064646 14.753396 
" style="fill:none;stroke:#808080;stroke-linecap:square;stroke-width:3.5;"/>
    </g>
    <g id="line2d_16"/>
    <g id="text_13">
     <!-- original degrees -->
     <defs>
      <path d="M 30.609375 48.390625 
Q 23.390625 48.390625 19.1875 42.75 
Q 14.984375 37.109375 14.984375 27.296875 
Q 14.984375 17.484375 19.15625 11.84375 
Q 23.34375 6.203125 30.609375 6.203125 
Q 37.796875 6.203125 41.984375 11.859375 
Q 46.1875 17.53125 46.1875 27.296875 
Q 46.1875 37.015625 41.984375 42.703125 
Q 37.796875 48.390625 30.609375 48.390625 
z
M 30.609375 56 
Q 42.328125 56 49.015625 48.375 
Q 55.71875 40.765625 55.71875 27.296875 
Q 55.71875 13.875 49.015625 6.21875 
Q 42.328125 -1.421875 30.609375 -1.421875 
Q 18.84375 -1.421875 12.171875 6.21875 
Q 5.515625 13.875 5.515625 27.296875 
Q 5.515625 40.765625 12.171875 48.375 
Q 18.84375 56 30.609375 56 
z
" id="DejaVuSans-6f"/>
      <path d="M 34.28125 27.484375 
Q 23.390625 27.484375 19.1875 25 
Q 14.984375 22.515625 14.984375 16.5 
Q 14.984375 11.71875 18.140625 8.90625 
Q 21.296875 6.109375 26.703125 6.109375 
Q 34.1875 6.109375 38.703125 11.40625 
Q 43.21875 16.703125 43.21875 25.484375 
L 43.21875 27.484375 
z
M 52.203125 31.203125 
L 52.203125 0 
L 43.21875 0 
L 43.21875 8.296875 
Q 40.140625 3.328125 35.546875 0.953125 
Q 30.953125 -1.421875 24.3125 -1.421875 
Q 15.921875 -1.421875 10.953125 3.296875 
Q 6 8.015625 6 15.921875 
Q 6 25.140625 12.171875 29.828125 
Q 18.359375 34.515625 30.609375 34.515625 
L 43.21875 34.515625 
L 43.21875 35.40625 
Q 43.21875 41.609375 39.140625 45 
Q 35.0625 48.390625 27.6875 48.390625 
Q 23 48.390625 18.546875 47.265625 
Q 14.109375 46.140625 10.015625 43.890625 
L 10.015625 52.203125 
Q 14.9375 54.109375 19.578125 55.046875 
Q 24.21875 56 28.609375 56 
Q 40.484375 56 46.34375 49.84375 
Q 52.203125 43.703125 52.203125 31.203125 
z
" id="DejaVuSans-61"/>
      <path d="M 9.421875 75.984375 
L 18.40625 75.984375 
L 18.40625 0 
L 9.421875 0 
z
" id="DejaVuSans-6c"/>
     </defs>
     <g transform="translate(59.464646 17.553396)scale(0.08 -0.08)">
      <use xlink:href="#DejaVuSans-6f"/>
      <use x="61.181641" xlink:href="#DejaVuSans-72"/>
      <use x="102.294922" xlink:href="#DejaVuSans-69"/>
      <use x="130.078125" xlink:href="#DejaVuSans-67"/>
      <use x="193.554688" xlink:href="#DejaVuSans-69"/>
      <use x="221.337891" xlink:href="#DejaVuSans-6e"/>
      <use x="284.716797" xlink:href="#DejaVuSans-61"/>
      <use x="345.996094" xlink:href="#DejaVuSans-6c"/>
      <use x="373.779297" xlink:href="#DejaVuSans-20"/>
      <use x="405.566406" xlink:href="#DejaVuSans-64"/>
      <use x="469.042969" xlink:href="#DejaVuSans-65"/>
      <use x="530.566406" xlink:href="#DejaVuSans-67"/>
      <use x="594.042969" xlink:href="#DejaVuSans-72"/>
      <use x="635.125" xlink:href="#DejaVuSans-65"/>
      <use x="696.648438" xlink:href="#DejaVuSans-65"/>
      <use x="758.171875" xlink:href="#DejaVuSans-73"/>
     </g>
    </g>
    <g id="line2d_17">
     <path d="M 37.064646 26.495896 
L 53.064646 26.495896 
" style="fill:none;stroke:#0000ff;stroke-linecap:square;stroke-width:2;"/>
    </g>
    <g id="line2d_18"/>
    <g id="text_14">
     <!-- naive -->
     <g transform="translate(59.464646 29.295896)scale(0.08 -0.08)">
      <use xlink:href="#DejaVuSans-6e"/>
      <use x="63.378906" xlink:href="#DejaVuSans-61"/>
      <use x="124.658203" xlink:href="#DejaVuSans-69"/>
      <use x="152.441406" xlink:href="#DejaVuSans-76"/>
      <use x="211.621094" xlink:href="#DejaVuSans-65"/>
     </g>
    </g>
    <g id="line2d_19">
     <path d="M 37.064646 38.238396 
L 53.064646 38.238396 
" style="fill:none;stroke:#ffa500;stroke-linecap:square;"/>
    </g>
    <g id="line2d_20"/>
    <g id="text_15">
     <!-- FMM -->
     <defs>
      <path d="M 9.8125 72.90625 
L 51.703125 72.90625 
L 51.703125 64.59375 
L 19.671875 64.59375 
L 19.671875 43.109375 
L 48.578125 43.109375 
L 48.578125 34.8125 
L 19.671875 34.8125 
L 19.671875 0 
L 9.8125 0 
z
" id="DejaVuSans-46"/>
      <path d="M 9.8125 72.90625 
L 24.515625 72.90625 
L 43.109375 23.296875 
L 61.8125 72.90625 
L 76.515625 72.90625 
L 76.515625 0 
L 66.890625 0 
L 66.890625 64.015625 
L 48.09375 14.015625 
L 38.1875 14.015625 
L 19.390625 64.015625 
L 19.390625 0 
L 9.8125 0 
z
" id="DejaVuSans-4d"/>
     </defs>
     <g transform="translate(59.464646 41.038396)scale(0.08 -0.08)">
      <use xlink:href="#DejaVuSans-46"/>
      <use x="57.519531" xlink:href="#DejaVuSans-4d"/>
      <use x="143.798828" xlink:href="#DejaVuSans-4d"/>
     </g>
    </g>
    <g id="line2d_21">
     <path d="M 37.064646 49.980896 
L 53.064646 49.980896 
" style="fill:none;stroke:#ff0000;stroke-linecap:square;"/>
    </g>
    <g id="line2d_22"/>
    <g id="text_16">
     <!-- FMM error -->
     <g transform="translate(59.464646 52.780896)scale(0.08 -0.08)">
      <use xlink:href="#DejaVuSans-46"/>
      <use x="57.519531" xlink:href="#DejaVuSans-4d"/>
      <use x="143.798828" xlink:href="#DejaVuSans-4d"/>
      <use x="230.078125" xlink:href="#DejaVuSans-20"/>
      <use x="261.865234" xlink:href="#DejaVuSans-65"/>
      <use x="323.388672" xlink:href="#DejaVuSans-72"/>
      <use x="364.486328" xlink:href="#DejaVuSans-72"/>
      <use x="405.568359" xlink:href="#DejaVuSans-6f"/>
      <use x="466.75" xlink:href="#DejaVuSans-72"/>
     </g>
    </g>
   </g>
  </g>
 </g>
 <defs>
  <clipPath id="pd5e7f8e2bc">
   <rect height="141.630709" width="147.300709" x="29.864646" y="4.274646"/>
  </clipPath>
 </defs>
</svg>
