<?xml version="1.0" encoding="utf-8" standalone="no"?>
<!DOCTYPE svg PUBLIC "-//W3C//DTD SVG 1.1//EN"
  "http://www.w3.org/Graphics/SVG/1.1/DTD/svg11.dtd">
<!-- Created with matplotlib (http://matplotlib.org/) -->
<svg height="194.4pt" version="1.1" viewBox="0 0 237.6 194.4" width="237.6pt" xmlns="http://www.w3.org/2000/svg" xmlns:xlink="http://www.w3.org/1999/xlink">
 <defs>
  <style type="text/css">
*{stroke-linecap:butt;stroke-linejoin:round;}
  </style>
 </defs>
 <g id="figure_1">
  <g id="patch_1">
   <path d="M 0 194.4 
L 237.6 194.4 
L 237.6 0 
L 0 0 
z
" style="fill:#ffffff;"/>
  </g>
  <g id="axes_1">
   <g id="patch_2">
    <path d="M 39.160711 162.753354 
L 234.765354 162.753354 
L 234.765354 18.194646 
L 39.160711 18.194646 
z
" style="fill:#ffffff;"/>
   </g>
   <g id="matplotlib.axis_1">
    <g id="xtick_1">
     <g id="line2d_1">
      <path clip-path="url(#pa19f1d8e3d)" d="M 51.917535 162.753354 
L 51.917535 18.194646 
" style="fill:none;opacity:0.1;stroke:#000000;stroke-linecap:square;stroke-width:0.5;"/>
     </g>
     <g id="line2d_2">
      <defs>
       <path d="M 0 0 
L 0 -3.5 
" id="m7e419e286e" style="stroke:#000000;stroke-width:0.8;"/>
      </defs>
      <g>
       <use style="stroke:#000000;stroke-width:0.8;" x="51.917535" xlink:href="#m7e419e286e" y="162.753354"/>
      </g>
     </g>
     <g id="text_1">
      <!-- $10^{2}$ -->
      <defs>
       <path d="M 12.40625 8.296875 
L 28.515625 8.296875 
L 28.515625 63.921875 
L 10.984375 60.40625 
L 10.984375 69.390625 
L 28.421875 72.90625 
L 38.28125 72.90625 
L 38.28125 8.296875 
L 54.390625 8.296875 
L 54.390625 0 
L 12.40625 0 
z
" id="DejaVuSans-31"/>
       <path d="M 31.78125 66.40625 
Q 24.171875 66.40625 20.328125 58.90625 
Q 16.5 51.421875 16.5 36.375 
Q 16.5 21.390625 20.328125 13.890625 
Q 24.171875 6.390625 31.78125 6.390625 
Q 39.453125 6.390625 43.28125 13.890625 
Q 47.125 21.390625 47.125 36.375 
Q 47.125 51.421875 43.28125 58.90625 
Q 39.453125 66.40625 31.78125 66.40625 
z
M 31.78125 74.21875 
Q 44.046875 74.21875 50.515625 64.515625 
Q 56.984375 54.828125 56.984375 36.375 
Q 56.984375 17.96875 50.515625 8.265625 
Q 44.046875 -1.421875 31.78125 -1.421875 
Q 19.53125 -1.421875 13.0625 8.265625 
Q 6.59375 17.96875 6.59375 36.375 
Q 6.59375 54.828125 13.0625 64.515625 
Q 19.53125 74.21875 31.78125 74.21875 
z
" id="DejaVuSans-30"/>
       <path d="M 19.1875 8.296875 
L 53.609375 8.296875 
L 53.609375 0 
L 7.328125 0 
L 7.328125 8.296875 
Q 12.9375 14.109375 22.625 23.890625 
Q 32.328125 33.6875 34.8125 36.53125 
Q 39.546875 41.84375 41.421875 45.53125 
Q 43.3125 49.21875 43.3125 52.78125 
Q 43.3125 58.59375 39.234375 62.25 
Q 35.15625 65.921875 28.609375 65.921875 
Q 23.96875 65.921875 18.8125 64.3125 
Q 13.671875 62.703125 7.8125 59.421875 
L 7.8125 69.390625 
Q 13.765625 71.78125 18.9375 73 
Q 24.125 74.21875 28.421875 74.21875 
Q 39.75 74.21875 46.484375 68.546875 
Q 53.21875 62.890625 53.21875 53.421875 
Q 53.21875 48.921875 51.53125 44.890625 
Q 49.859375 40.875 45.40625 35.40625 
Q 44.1875 33.984375 37.640625 27.21875 
Q 31.109375 20.453125 19.1875 8.296875 
z
" id="DejaVuSans-32"/>
      </defs>
      <g transform="translate(44.877535 172.332104)scale(0.08 -0.08)">
       <use transform="translate(0 0.765625)" xlink:href="#DejaVuSans-31"/>
       <use transform="translate(63.623047 0.765625)" xlink:href="#DejaVuSans-30"/>
       <use transform="translate(128.203125 39.046875)scale(0.7)" xlink:href="#DejaVuSans-32"/>
      </g>
     </g>
    </g>
    <g id="xtick_2">
     <g id="line2d_3">
      <path clip-path="url(#pa19f1d8e3d)" d="M 94.440284 162.753354 
L 94.440284 18.194646 
" style="fill:none;opacity:0.1;stroke:#000000;stroke-linecap:square;stroke-width:0.5;"/>
     </g>
     <g id="line2d_4">
      <g>
       <use style="stroke:#000000;stroke-width:0.8;" x="94.440284" xlink:href="#m7e419e286e" y="162.753354"/>
      </g>
     </g>
     <g id="text_2">
      <!-- $10^{3}$ -->
      <defs>
       <path d="M 40.578125 39.3125 
Q 47.65625 37.796875 51.625 33 
Q 55.609375 28.21875 55.609375 21.1875 
Q 55.609375 10.40625 48.1875 4.484375 
Q 40.765625 -1.421875 27.09375 -1.421875 
Q 22.515625 -1.421875 17.65625 -0.515625 
Q 12.796875 0.390625 7.625 2.203125 
L 7.625 11.71875 
Q 11.71875 9.328125 16.59375 8.109375 
Q 21.484375 6.890625 26.8125 6.890625 
Q 36.078125 6.890625 40.9375 10.546875 
Q 45.796875 14.203125 45.796875 21.1875 
Q 45.796875 27.640625 41.28125 31.265625 
Q 36.765625 34.90625 28.71875 34.90625 
L 20.21875 34.90625 
L 20.21875 43.015625 
L 29.109375 43.015625 
Q 36.375 43.015625 40.234375 45.921875 
Q 44.09375 48.828125 44.09375 54.296875 
Q 44.09375 59.90625 40.109375 62.90625 
Q 36.140625 65.921875 28.71875 65.921875 
Q 24.65625 65.921875 20.015625 65.03125 
Q 15.375 64.15625 9.8125 62.3125 
L 9.8125 71.09375 
Q 15.4375 72.65625 20.34375 73.4375 
Q 25.25 74.21875 29.59375 74.21875 
Q 40.828125 74.21875 47.359375 69.109375 
Q 53.90625 64.015625 53.90625 55.328125 
Q 53.90625 49.265625 50.4375 45.09375 
Q 46.96875 40.921875 40.578125 39.3125 
z
" id="DejaVuSans-33"/>
      </defs>
      <g transform="translate(87.400284 172.332104)scale(0.08 -0.08)">
       <use transform="translate(0 0.765625)" xlink:href="#DejaVuSans-31"/>
       <use transform="translate(63.623047 0.765625)" xlink:href="#DejaVuSans-30"/>
       <use transform="translate(128.203125 39.046875)scale(0.7)" xlink:href="#DejaVuSans-33"/>
      </g>
     </g>
    </g>
    <g id="xtick_3">
     <g id="line2d_5">
      <path clip-path="url(#pa19f1d8e3d)" d="M 136.963032 162.753354 
L 136.963032 18.194646 
" style="fill:none;opacity:0.1;stroke:#000000;stroke-linecap:square;stroke-width:0.5;"/>
     </g>
     <g id="line2d_6">
      <g>
       <use style="stroke:#000000;stroke-width:0.8;" x="136.963032" xlink:href="#m7e419e286e" y="162.753354"/>
      </g>
     </g>
     <g id="text_3">
      <!-- $10^{4}$ -->
      <defs>
       <path d="M 37.796875 64.3125 
L 12.890625 25.390625 
L 37.796875 25.390625 
z
M 35.203125 72.90625 
L 47.609375 72.90625 
L 47.609375 25.390625 
L 58.015625 25.390625 
L 58.015625 17.1875 
L 47.609375 17.1875 
L 47.609375 0 
L 37.796875 0 
L 37.796875 17.1875 
L 4.890625 17.1875 
L 4.890625 26.703125 
z
" id="DejaVuSans-34"/>
      </defs>
      <g transform="translate(129.923032 172.332104)scale(0.08 -0.08)">
       <use transform="translate(0 0.684375)" xlink:href="#DejaVuSans-31"/>
       <use transform="translate(63.623047 0.684375)" xlink:href="#DejaVuSans-30"/>
       <use transform="translate(128.203125 38.965625)scale(0.7)" xlink:href="#DejaVuSans-34"/>
      </g>
     </g>
    </g>
    <g id="xtick_4">
     <g id="line2d_7">
      <path clip-path="url(#pa19f1d8e3d)" d="M 179.485781 162.753354 
L 179.485781 18.194646 
" style="fill:none;opacity:0.1;stroke:#000000;stroke-linecap:square;stroke-width:0.5;"/>
     </g>
     <g id="line2d_8">
      <g>
       <use style="stroke:#000000;stroke-width:0.8;" x="179.485781" xlink:href="#m7e419e286e" y="162.753354"/>
      </g>
     </g>
     <g id="text_4">
      <!-- $10^{5}$ -->
      <defs>
       <path d="M 10.796875 72.90625 
L 49.515625 72.90625 
L 49.515625 64.59375 
L 19.828125 64.59375 
L 19.828125 46.734375 
Q 21.96875 47.46875 24.109375 47.828125 
Q 26.265625 48.1875 28.421875 48.1875 
Q 40.625 48.1875 47.75 41.5 
Q 54.890625 34.8125 54.890625 23.390625 
Q 54.890625 11.625 47.5625 5.09375 
Q 40.234375 -1.421875 26.90625 -1.421875 
Q 22.3125 -1.421875 17.546875 -0.640625 
Q 12.796875 0.140625 7.71875 1.703125 
L 7.71875 11.625 
Q 12.109375 9.234375 16.796875 8.0625 
Q 21.484375 6.890625 26.703125 6.890625 
Q 35.15625 6.890625 40.078125 11.328125 
Q 45.015625 15.765625 45.015625 23.390625 
Q 45.015625 31 40.078125 35.4375 
Q 35.15625 39.890625 26.703125 39.890625 
Q 22.75 39.890625 18.8125 39.015625 
Q 14.890625 38.140625 10.796875 36.28125 
z
" id="DejaVuSans-35"/>
      </defs>
      <g transform="translate(172.445781 172.332104)scale(0.08 -0.08)">
       <use transform="translate(0 0.684375)" xlink:href="#DejaVuSans-31"/>
       <use transform="translate(63.623047 0.684375)" xlink:href="#DejaVuSans-30"/>
       <use transform="translate(128.203125 38.965625)scale(0.7)" xlink:href="#DejaVuSans-35"/>
      </g>
     </g>
    </g>
    <g id="xtick_5">
     <g id="line2d_9">
      <path clip-path="url(#pa19f1d8e3d)" d="M 222.00853 162.753354 
L 222.00853 18.194646 
" style="fill:none;opacity:0.1;stroke:#000000;stroke-linecap:square;stroke-width:0.5;"/>
     </g>
     <g id="line2d_10">
      <g>
       <use style="stroke:#000000;stroke-width:0.8;" x="222.00853" xlink:href="#m7e419e286e" y="162.753354"/>
      </g>
     </g>
     <g id="text_5">
      <!-- $10^{6}$ -->
      <defs>
       <path d="M 33.015625 40.375 
Q 26.375 40.375 22.484375 35.828125 
Q 18.609375 31.296875 18.609375 23.390625 
Q 18.609375 15.53125 22.484375 10.953125 
Q 26.375 6.390625 33.015625 6.390625 
Q 39.65625 6.390625 43.53125 10.953125 
Q 47.40625 15.53125 47.40625 23.390625 
Q 47.40625 31.296875 43.53125 35.828125 
Q 39.65625 40.375 33.015625 40.375 
z
M 52.59375 71.296875 
L 52.59375 62.3125 
Q 48.875 64.0625 45.09375 64.984375 
Q 41.3125 65.921875 37.59375 65.921875 
Q 27.828125 65.921875 22.671875 59.328125 
Q 17.53125 52.734375 16.796875 39.40625 
Q 19.671875 43.65625 24.015625 45.921875 
Q 28.375 48.1875 33.59375 48.1875 
Q 44.578125 48.1875 50.953125 41.515625 
Q 57.328125 34.859375 57.328125 23.390625 
Q 57.328125 12.15625 50.6875 5.359375 
Q 44.046875 -1.421875 33.015625 -1.421875 
Q 20.359375 -1.421875 13.671875 8.265625 
Q 6.984375 17.96875 6.984375 36.375 
Q 6.984375 53.65625 15.1875 63.9375 
Q 23.390625 74.21875 37.203125 74.21875 
Q 40.921875 74.21875 44.703125 73.484375 
Q 48.484375 72.75 52.59375 71.296875 
z
" id="DejaVuSans-36"/>
      </defs>
      <g transform="translate(214.96853 172.332104)scale(0.08 -0.08)">
       <use transform="translate(0 0.765625)" xlink:href="#DejaVuSans-31"/>
       <use transform="translate(63.623047 0.765625)" xlink:href="#DejaVuSans-30"/>
       <use transform="translate(128.203125 39.046875)scale(0.7)" xlink:href="#DejaVuSans-36"/>
      </g>
     </g>
    </g>
    <g id="xtick_6">
     <g id="line2d_11">
      <defs>
       <path d="M 0 0 
L 0 2 
" id="m369dba9531" style="stroke:#000000;stroke-width:0.6;"/>
      </defs>
      <g>
       <use style="stroke:#000000;stroke-width:0.6;" x="51.917535" xlink:href="#m369dba9531" y="162.753354"/>
      </g>
     </g>
    </g>
    <g id="xtick_7">
     <g id="line2d_12">
      <g>
       <use style="stroke:#000000;stroke-width:0.6;" x="94.440284" xlink:href="#m369dba9531" y="162.753354"/>
      </g>
     </g>
    </g>
    <g id="xtick_8">
     <g id="line2d_13">
      <g>
       <use style="stroke:#000000;stroke-width:0.6;" x="136.963032" xlink:href="#m369dba9531" y="162.753354"/>
      </g>
     </g>
    </g>
    <g id="xtick_9">
     <g id="line2d_14">
      <g>
       <use style="stroke:#000000;stroke-width:0.6;" x="179.485781" xlink:href="#m369dba9531" y="162.753354"/>
      </g>
     </g>
    </g>
    <g id="xtick_10">
     <g id="line2d_15">
      <g>
       <use style="stroke:#000000;stroke-width:0.6;" x="222.00853" xlink:href="#m369dba9531" y="162.753354"/>
      </g>
     </g>
    </g>
    <g id="text_6">
     <!-- number of vertices -->
     <defs>
      <path d="M 54.890625 33.015625 
L 54.890625 0 
L 45.90625 0 
L 45.90625 32.71875 
Q 45.90625 40.484375 42.875 44.328125 
Q 39.84375 48.1875 33.796875 48.1875 
Q 26.515625 48.1875 22.3125 43.546875 
Q 18.109375 38.921875 18.109375 30.90625 
L 18.109375 0 
L 9.078125 0 
L 9.078125 54.6875 
L 18.109375 54.6875 
L 18.109375 46.1875 
Q 21.34375 51.125 25.703125 53.5625 
Q 30.078125 56 35.796875 56 
Q 45.21875 56 50.046875 50.171875 
Q 54.890625 44.34375 54.890625 33.015625 
z
" id="DejaVuSans-6e"/>
      <path d="M 8.5 21.578125 
L 8.5 54.6875 
L 17.484375 54.6875 
L 17.484375 21.921875 
Q 17.484375 14.15625 20.5 10.265625 
Q 23.53125 6.390625 29.59375 6.390625 
Q 36.859375 6.390625 41.078125 11.03125 
Q 45.3125 15.671875 45.3125 23.6875 
L 45.3125 54.6875 
L 54.296875 54.6875 
L 54.296875 0 
L 45.3125 0 
L 45.3125 8.40625 
Q 42.046875 3.421875 37.71875 1 
Q 33.40625 -1.421875 27.6875 -1.421875 
Q 18.265625 -1.421875 13.375 4.4375 
Q 8.5 10.296875 8.5 21.578125 
z
M 31.109375 56 
z
" id="DejaVuSans-75"/>
      <path d="M 52 44.1875 
Q 55.375 50.25 60.0625 53.125 
Q 64.75 56 71.09375 56 
Q 79.640625 56 84.28125 50.015625 
Q 88.921875 44.046875 88.921875 33.015625 
L 88.921875 0 
L 79.890625 0 
L 79.890625 32.71875 
Q 79.890625 40.578125 77.09375 44.375 
Q 74.3125 48.1875 68.609375 48.1875 
Q 61.625 48.1875 57.5625 43.546875 
Q 53.515625 38.921875 53.515625 30.90625 
L 53.515625 0 
L 44.484375 0 
L 44.484375 32.71875 
Q 44.484375 40.625 41.703125 44.40625 
Q 38.921875 48.1875 33.109375 48.1875 
Q 26.21875 48.1875 22.15625 43.53125 
Q 18.109375 38.875 18.109375 30.90625 
L 18.109375 0 
L 9.078125 0 
L 9.078125 54.6875 
L 18.109375 54.6875 
L 18.109375 46.1875 
Q 21.1875 51.21875 25.484375 53.609375 
Q 29.78125 56 35.6875 56 
Q 41.65625 56 45.828125 52.96875 
Q 50 49.953125 52 44.1875 
z
" id="DejaVuSans-6d"/>
      <path d="M 48.6875 27.296875 
Q 48.6875 37.203125 44.609375 42.84375 
Q 40.53125 48.484375 33.40625 48.484375 
Q 26.265625 48.484375 22.1875 42.84375 
Q 18.109375 37.203125 18.109375 27.296875 
Q 18.109375 17.390625 22.1875 11.75 
Q 26.265625 6.109375 33.40625 6.109375 
Q 40.53125 6.109375 44.609375 11.75 
Q 48.6875 17.390625 48.6875 27.296875 
z
M 18.109375 46.390625 
Q 20.953125 51.265625 25.265625 53.625 
Q 29.59375 56 35.59375 56 
Q 45.5625 56 51.78125 48.09375 
Q 58.015625 40.1875 58.015625 27.296875 
Q 58.015625 14.40625 51.78125 6.484375 
Q 45.5625 -1.421875 35.59375 -1.421875 
Q 29.59375 -1.421875 25.265625 0.953125 
Q 20.953125 3.328125 18.109375 8.203125 
L 18.109375 0 
L 9.078125 0 
L 9.078125 75.984375 
L 18.109375 75.984375 
z
" id="DejaVuSans-62"/>
      <path d="M 56.203125 29.59375 
L 56.203125 25.203125 
L 14.890625 25.203125 
Q 15.484375 15.921875 20.484375 11.0625 
Q 25.484375 6.203125 34.421875 6.203125 
Q 39.59375 6.203125 44.453125 7.46875 
Q 49.3125 8.734375 54.109375 11.28125 
L 54.109375 2.78125 
Q 49.265625 0.734375 44.1875 -0.34375 
Q 39.109375 -1.421875 33.890625 -1.421875 
Q 20.796875 -1.421875 13.15625 6.1875 
Q 5.515625 13.8125 5.515625 26.8125 
Q 5.515625 40.234375 12.765625 48.109375 
Q 20.015625 56 32.328125 56 
Q 43.359375 56 49.78125 48.890625 
Q 56.203125 41.796875 56.203125 29.59375 
z
M 47.21875 32.234375 
Q 47.125 39.59375 43.09375 43.984375 
Q 39.0625 48.390625 32.421875 48.390625 
Q 24.90625 48.390625 20.390625 44.140625 
Q 15.875 39.890625 15.1875 32.171875 
z
" id="DejaVuSans-65"/>
      <path d="M 41.109375 46.296875 
Q 39.59375 47.171875 37.8125 47.578125 
Q 36.03125 48 33.890625 48 
Q 26.265625 48 22.1875 43.046875 
Q 18.109375 38.09375 18.109375 28.8125 
L 18.109375 0 
L 9.078125 0 
L 9.078125 54.6875 
L 18.109375 54.6875 
L 18.109375 46.1875 
Q 20.953125 51.171875 25.484375 53.578125 
Q 30.03125 56 36.53125 56 
Q 37.453125 56 38.578125 55.875 
Q 39.703125 55.765625 41.0625 55.515625 
z
" id="DejaVuSans-72"/>
      <path id="DejaVuSans-20"/>
      <path d="M 30.609375 48.390625 
Q 23.390625 48.390625 19.1875 42.75 
Q 14.984375 37.109375 14.984375 27.296875 
Q 14.984375 17.484375 19.15625 11.84375 
Q 23.34375 6.203125 30.609375 6.203125 
Q 37.796875 6.203125 41.984375 11.859375 
Q 46.1875 17.53125 46.1875 27.296875 
Q 46.1875 37.015625 41.984375 42.703125 
Q 37.796875 48.390625 30.609375 48.390625 
z
M 30.609375 56 
Q 42.328125 56 49.015625 48.375 
Q 55.71875 40.765625 55.71875 27.296875 
Q 55.71875 13.875 49.015625 6.21875 
Q 42.328125 -1.421875 30.609375 -1.421875 
Q 18.84375 -1.421875 12.171875 6.21875 
Q 5.515625 13.875 5.515625 27.296875 
Q 5.515625 40.765625 12.171875 48.375 
Q 18.84375 56 30.609375 56 
z
" id="DejaVuSans-6f"/>
      <path d="M 37.109375 75.984375 
L 37.109375 68.5 
L 28.515625 68.5 
Q 23.6875 68.5 21.796875 66.546875 
Q 19.921875 64.59375 19.921875 59.515625 
L 19.921875 54.6875 
L 34.71875 54.6875 
L 34.71875 47.703125 
L 19.921875 47.703125 
L 19.921875 0 
L 10.890625 0 
L 10.890625 47.703125 
L 2.296875 47.703125 
L 2.296875 54.6875 
L 10.890625 54.6875 
L 10.890625 58.5 
Q 10.890625 67.625 15.140625 71.796875 
Q 19.390625 75.984375 28.609375 75.984375 
z
" id="DejaVuSans-66"/>
      <path d="M 2.984375 54.6875 
L 12.5 54.6875 
L 29.59375 8.796875 
L 46.6875 54.6875 
L 56.203125 54.6875 
L 35.6875 0 
L 23.484375 0 
z
" id="DejaVuSans-76"/>
      <path d="M 18.3125 70.21875 
L 18.3125 54.6875 
L 36.8125 54.6875 
L 36.8125 47.703125 
L 18.3125 47.703125 
L 18.3125 18.015625 
Q 18.3125 11.328125 20.140625 9.421875 
Q 21.96875 7.515625 27.59375 7.515625 
L 36.8125 7.515625 
L 36.8125 0 
L 27.59375 0 
Q 17.1875 0 13.234375 3.875 
Q 9.28125 7.765625 9.28125 18.015625 
L 9.28125 47.703125 
L 2.6875 47.703125 
L 2.6875 54.6875 
L 9.28125 54.6875 
L 9.28125 70.21875 
z
" id="DejaVuSans-74"/>
      <path d="M 9.421875 54.6875 
L 18.40625 54.6875 
L 18.40625 0 
L 9.421875 0 
z
M 9.421875 75.984375 
L 18.40625 75.984375 
L 18.40625 64.59375 
L 9.421875 64.59375 
z
" id="DejaVuSans-69"/>
      <path d="M 48.78125 52.59375 
L 48.78125 44.1875 
Q 44.96875 46.296875 41.140625 47.34375 
Q 37.3125 48.390625 33.40625 48.390625 
Q 24.65625 48.390625 19.8125 42.84375 
Q 14.984375 37.3125 14.984375 27.296875 
Q 14.984375 17.28125 19.8125 11.734375 
Q 24.65625 6.203125 33.40625 6.203125 
Q 37.3125 6.203125 41.140625 7.25 
Q 44.96875 8.296875 48.78125 10.40625 
L 48.78125 2.09375 
Q 45.015625 0.34375 40.984375 -0.53125 
Q 36.96875 -1.421875 32.421875 -1.421875 
Q 20.0625 -1.421875 12.78125 6.34375 
Q 5.515625 14.109375 5.515625 27.296875 
Q 5.515625 40.671875 12.859375 48.328125 
Q 20.21875 56 33.015625 56 
Q 37.15625 56 41.109375 55.140625 
Q 45.0625 54.296875 48.78125 52.59375 
z
" id="DejaVuSans-63"/>
      <path d="M 44.28125 53.078125 
L 44.28125 44.578125 
Q 40.484375 46.53125 36.375 47.5 
Q 32.28125 48.484375 27.875 48.484375 
Q 21.1875 48.484375 17.84375 46.4375 
Q 14.5 44.390625 14.5 40.28125 
Q 14.5 37.15625 16.890625 35.375 
Q 19.28125 33.59375 26.515625 31.984375 
L 29.59375 31.296875 
Q 39.15625 29.25 43.1875 25.515625 
Q 47.21875 21.78125 47.21875 15.09375 
Q 47.21875 7.46875 41.1875 3.015625 
Q 35.15625 -1.421875 24.609375 -1.421875 
Q 20.21875 -1.421875 15.453125 -0.5625 
Q 10.6875 0.296875 5.421875 2 
L 5.421875 11.28125 
Q 10.40625 8.6875 15.234375 7.390625 
Q 20.0625 6.109375 24.8125 6.109375 
Q 31.15625 6.109375 34.5625 8.28125 
Q 37.984375 10.453125 37.984375 14.40625 
Q 37.984375 18.0625 35.515625 20.015625 
Q 33.0625 21.96875 24.703125 23.78125 
L 21.578125 24.515625 
Q 13.234375 26.265625 9.515625 29.90625 
Q 5.8125 33.546875 5.8125 39.890625 
Q 5.8125 47.609375 11.28125 51.796875 
Q 16.75 56 26.8125 56 
Q 31.78125 56 36.171875 55.265625 
Q 40.578125 54.546875 44.28125 53.078125 
z
" id="DejaVuSans-73"/>
     </defs>
     <g transform="translate(84.841939 186.354136)scale(0.11 -0.11)">
      <use xlink:href="#DejaVuSans-6e"/>
      <use x="63.378906" xlink:href="#DejaVuSans-75"/>
      <use x="126.757812" xlink:href="#DejaVuSans-6d"/>
      <use x="224.169922" xlink:href="#DejaVuSans-62"/>
      <use x="287.646484" xlink:href="#DejaVuSans-65"/>
      <use x="349.169922" xlink:href="#DejaVuSans-72"/>
      <use x="390.283203" xlink:href="#DejaVuSans-20"/>
      <use x="422.070312" xlink:href="#DejaVuSans-6f"/>
      <use x="483.251953" xlink:href="#DejaVuSans-66"/>
      <use x="518.457031" xlink:href="#DejaVuSans-20"/>
      <use x="550.244141" xlink:href="#DejaVuSans-76"/>
      <use x="609.423828" xlink:href="#DejaVuSans-65"/>
      <use x="670.947266" xlink:href="#DejaVuSans-72"/>
      <use x="712.060547" xlink:href="#DejaVuSans-74"/>
      <use x="751.269531" xlink:href="#DejaVuSans-69"/>
      <use x="779.052734" xlink:href="#DejaVuSans-63"/>
      <use x="834.033203" xlink:href="#DejaVuSans-65"/>
      <use x="895.556641" xlink:href="#DejaVuSans-73"/>
     </g>
    </g>
   </g>
   <g id="matplotlib.axis_2">
    <g id="ytick_1">
     <g id="line2d_16">
      <path clip-path="url(#pa19f1d8e3d)" d="M 39.160711 146.942246 
L 234.765354 146.942246 
" style="fill:none;opacity:0.1;stroke:#000000;stroke-linecap:square;stroke-width:0.5;"/>
     </g>
     <g id="line2d_17">
      <defs>
       <path d="M 0 0 
L 3.5 0 
" id="m81e9a1a36f" style="stroke:#000000;stroke-width:0.8;"/>
      </defs>
      <g>
       <use style="stroke:#000000;stroke-width:0.8;" x="39.160711" xlink:href="#m81e9a1a36f" y="146.942246"/>
      </g>
     </g>
     <g id="text_7">
      <!-- $10^{-3}$ -->
      <defs>
       <path d="M 10.59375 35.5 
L 73.1875 35.5 
L 73.1875 27.203125 
L 10.59375 27.203125 
z
" id="DejaVuSans-2212"/>
      </defs>
      <g transform="translate(16.860711 149.981621)scale(0.08 -0.08)">
       <use transform="translate(0 0.765625)" xlink:href="#DejaVuSans-31"/>
       <use transform="translate(63.623047 0.765625)" xlink:href="#DejaVuSans-30"/>
       <use transform="translate(128.203125 39.046875)scale(0.7)" xlink:href="#DejaVuSans-2212"/>
       <use transform="translate(186.855469 39.046875)scale(0.7)" xlink:href="#DejaVuSans-33"/>
      </g>
     </g>
    </g>
    <g id="ytick_2">
     <g id="line2d_18">
      <path clip-path="url(#pa19f1d8e3d)" d="M 39.160711 124.354947 
L 234.765354 124.354947 
" style="fill:none;opacity:0.1;stroke:#000000;stroke-linecap:square;stroke-width:0.5;"/>
     </g>
     <g id="line2d_19">
      <g>
       <use style="stroke:#000000;stroke-width:0.8;" x="39.160711" xlink:href="#m81e9a1a36f" y="124.354947"/>
      </g>
     </g>
     <g id="text_8">
      <!-- $10^{-2}$ -->
      <g transform="translate(16.860711 127.394322)scale(0.08 -0.08)">
       <use transform="translate(0 0.765625)" xlink:href="#DejaVuSans-31"/>
       <use transform="translate(63.623047 0.765625)" xlink:href="#DejaVuSans-30"/>
       <use transform="translate(128.203125 39.046875)scale(0.7)" xlink:href="#DejaVuSans-2212"/>
       <use transform="translate(186.855469 39.046875)scale(0.7)" xlink:href="#DejaVuSans-32"/>
      </g>
     </g>
    </g>
    <g id="ytick_3">
     <g id="line2d_20">
      <path clip-path="url(#pa19f1d8e3d)" d="M 39.160711 101.767649 
L 234.765354 101.767649 
" style="fill:none;opacity:0.1;stroke:#000000;stroke-linecap:square;stroke-width:0.5;"/>
     </g>
     <g id="line2d_21">
      <g>
       <use style="stroke:#000000;stroke-width:0.8;" x="39.160711" xlink:href="#m81e9a1a36f" y="101.767649"/>
      </g>
     </g>
     <g id="text_9">
      <!-- $10^{-1}$ -->
      <g transform="translate(16.860711 104.807024)scale(0.08 -0.08)">
       <use transform="translate(0 0.684375)" xlink:href="#DejaVuSans-31"/>
       <use transform="translate(63.623047 0.684375)" xlink:href="#DejaVuSans-30"/>
       <use transform="translate(128.203125 38.965625)scale(0.7)" xlink:href="#DejaVuSans-2212"/>
       <use transform="translate(186.855469 38.965625)scale(0.7)" xlink:href="#DejaVuSans-31"/>
      </g>
     </g>
    </g>
    <g id="ytick_4">
     <g id="line2d_22">
      <path clip-path="url(#pa19f1d8e3d)" d="M 39.160711 79.180351 
L 234.765354 79.180351 
" style="fill:none;opacity:0.1;stroke:#000000;stroke-linecap:square;stroke-width:0.5;"/>
     </g>
     <g id="line2d_23">
      <g>
       <use style="stroke:#000000;stroke-width:0.8;" x="39.160711" xlink:href="#m81e9a1a36f" y="79.180351"/>
      </g>
     </g>
     <g id="text_10">
      <!-- $10^{0}$ -->
      <g transform="translate(21.580711 82.219726)scale(0.08 -0.08)">
       <use transform="translate(0 0.765625)" xlink:href="#DejaVuSans-31"/>
       <use transform="translate(63.623047 0.765625)" xlink:href="#DejaVuSans-30"/>
       <use transform="translate(128.203125 39.046875)scale(0.7)" xlink:href="#DejaVuSans-30"/>
      </g>
     </g>
    </g>
    <g id="ytick_5">
     <g id="line2d_24">
      <path clip-path="url(#pa19f1d8e3d)" d="M 39.160711 56.593053 
L 234.765354 56.593053 
" style="fill:none;opacity:0.1;stroke:#000000;stroke-linecap:square;stroke-width:0.5;"/>
     </g>
     <g id="line2d_25">
      <g>
       <use style="stroke:#000000;stroke-width:0.8;" x="39.160711" xlink:href="#m81e9a1a36f" y="56.593053"/>
      </g>
     </g>
     <g id="text_11">
      <!-- $10^{1}$ -->
      <g transform="translate(21.580711 59.632428)scale(0.08 -0.08)">
       <use transform="translate(0 0.684375)" xlink:href="#DejaVuSans-31"/>
       <use transform="translate(63.623047 0.684375)" xlink:href="#DejaVuSans-30"/>
       <use transform="translate(128.203125 38.965625)scale(0.7)" xlink:href="#DejaVuSans-31"/>
      </g>
     </g>
    </g>
    <g id="ytick_6">
     <g id="line2d_26">
      <path clip-path="url(#pa19f1d8e3d)" d="M 39.160711 34.005754 
L 234.765354 34.005754 
" style="fill:none;opacity:0.1;stroke:#000000;stroke-linecap:square;stroke-width:0.5;"/>
     </g>
     <g id="line2d_27">
      <g>
       <use style="stroke:#000000;stroke-width:0.8;" x="39.160711" xlink:href="#m81e9a1a36f" y="34.005754"/>
      </g>
     </g>
     <g id="text_12">
      <!-- $10^{2}$ -->
      <g transform="translate(21.580711 37.045129)scale(0.08 -0.08)">
       <use transform="translate(0 0.765625)" xlink:href="#DejaVuSans-31"/>
       <use transform="translate(63.623047 0.765625)" xlink:href="#DejaVuSans-30"/>
       <use transform="translate(128.203125 39.046875)scale(0.7)" xlink:href="#DejaVuSans-32"/>
      </g>
     </g>
    </g>
    <g id="ytick_7">
     <g id="line2d_28">
      <defs>
       <path d="M 0 0 
L -2 0 
" id="m65a70eb18c" style="stroke:#000000;stroke-width:0.6;"/>
      </defs>
      <g>
       <use style="stroke:#000000;stroke-width:0.6;" x="39.160711" xlink:href="#m65a70eb18c" y="146.942246"/>
      </g>
     </g>
    </g>
    <g id="ytick_8">
     <g id="line2d_29">
      <g>
       <use style="stroke:#000000;stroke-width:0.6;" x="39.160711" xlink:href="#m65a70eb18c" y="124.354947"/>
      </g>
     </g>
    </g>
    <g id="ytick_9">
     <g id="line2d_30">
      <g>
       <use style="stroke:#000000;stroke-width:0.6;" x="39.160711" xlink:href="#m65a70eb18c" y="101.767649"/>
      </g>
     </g>
    </g>
    <g id="ytick_10">
     <g id="line2d_31">
      <g>
       <use style="stroke:#000000;stroke-width:0.6;" x="39.160711" xlink:href="#m65a70eb18c" y="79.180351"/>
      </g>
     </g>
    </g>
    <g id="ytick_11">
     <g id="line2d_32">
      <g>
       <use style="stroke:#000000;stroke-width:0.6;" x="39.160711" xlink:href="#m65a70eb18c" y="56.593053"/>
      </g>
     </g>
    </g>
    <g id="ytick_12">
     <g id="line2d_33">
      <g>
       <use style="stroke:#000000;stroke-width:0.6;" x="39.160711" xlink:href="#m65a70eb18c" y="34.005754"/>
      </g>
     </g>
    </g>
    <g id="text_13">
     <!-- time per function call (sec) -->
     <defs>
      <path d="M 18.109375 8.203125 
L 18.109375 -20.796875 
L 9.078125 -20.796875 
L 9.078125 54.6875 
L 18.109375 54.6875 
L 18.109375 46.390625 
Q 20.953125 51.265625 25.265625 53.625 
Q 29.59375 56 35.59375 56 
Q 45.5625 56 51.78125 48.09375 
Q 58.015625 40.1875 58.015625 27.296875 
Q 58.015625 14.40625 51.78125 6.484375 
Q 45.5625 -1.421875 35.59375 -1.421875 
Q 29.59375 -1.421875 25.265625 0.953125 
Q 20.953125 3.328125 18.109375 8.203125 
z
M 48.6875 27.296875 
Q 48.6875 37.203125 44.609375 42.84375 
Q 40.53125 48.484375 33.40625 48.484375 
Q 26.265625 48.484375 22.1875 42.84375 
Q 18.109375 37.203125 18.109375 27.296875 
Q 18.109375 17.390625 22.1875 11.75 
Q 26.265625 6.109375 33.40625 6.109375 
Q 40.53125 6.109375 44.609375 11.75 
Q 48.6875 17.390625 48.6875 27.296875 
z
" id="DejaVuSans-70"/>
      <path d="M 34.28125 27.484375 
Q 23.390625 27.484375 19.1875 25 
Q 14.984375 22.515625 14.984375 16.5 
Q 14.984375 11.71875 18.140625 8.90625 
Q 21.296875 6.109375 26.703125 6.109375 
Q 34.1875 6.109375 38.703125 11.40625 
Q 43.21875 16.703125 43.21875 25.484375 
L 43.21875 27.484375 
z
M 52.203125 31.203125 
L 52.203125 0 
L 43.21875 0 
L 43.21875 8.296875 
Q 40.140625 3.328125 35.546875 0.953125 
Q 30.953125 -1.421875 24.3125 -1.421875 
Q 15.921875 -1.421875 10.953125 3.296875 
Q 6 8.015625 6 15.921875 
Q 6 25.140625 12.171875 29.828125 
Q 18.359375 34.515625 30.609375 34.515625 
L 43.21875 34.515625 
L 43.21875 35.40625 
Q 43.21875 41.609375 39.140625 45 
Q 35.0625 48.390625 27.6875 48.390625 
Q 23 48.390625 18.546875 47.265625 
Q 14.109375 46.140625 10.015625 43.890625 
L 10.015625 52.203125 
Q 14.9375 54.109375 19.578125 55.046875 
Q 24.21875 56 28.609375 56 
Q 40.484375 56 46.34375 49.84375 
Q 52.203125 43.703125 52.203125 31.203125 
z
" id="DejaVuSans-61"/>
      <path d="M 9.421875 75.984375 
L 18.40625 75.984375 
L 18.40625 0 
L 9.421875 0 
z
" id="DejaVuSans-6c"/>
      <path d="M 31 75.875 
Q 24.46875 64.65625 21.28125 53.65625 
Q 18.109375 42.671875 18.109375 31.390625 
Q 18.109375 20.125 21.3125 9.0625 
Q 24.515625 -2 31 -13.1875 
L 23.1875 -13.1875 
Q 15.875 -1.703125 12.234375 9.375 
Q 8.59375 20.453125 8.59375 31.390625 
Q 8.59375 42.28125 12.203125 53.3125 
Q 15.828125 64.359375 23.1875 75.875 
z
" id="DejaVuSans-28"/>
      <path d="M 8.015625 75.875 
L 15.828125 75.875 
Q 23.140625 64.359375 26.78125 53.3125 
Q 30.421875 42.28125 30.421875 31.390625 
Q 30.421875 20.453125 26.78125 9.375 
Q 23.140625 -1.703125 15.828125 -13.1875 
L 8.015625 -13.1875 
Q 14.5 -2 17.703125 9.0625 
Q 20.90625 20.125 20.90625 31.390625 
Q 20.90625 42.671875 17.703125 53.65625 
Q 14.5 64.65625 8.015625 75.875 
z
" id="DejaVuSans-29"/>
     </defs>
     <g transform="translate(10.573054 164.510875)rotate(-90)scale(0.11 -0.11)">
      <use xlink:href="#DejaVuSans-74"/>
      <use x="39.208984" xlink:href="#DejaVuSans-69"/>
      <use x="66.992188" xlink:href="#DejaVuSans-6d"/>
      <use x="164.404297" xlink:href="#DejaVuSans-65"/>
      <use x="225.927734" xlink:href="#DejaVuSans-20"/>
      <use x="257.714844" xlink:href="#DejaVuSans-70"/>
      <use x="321.191406" xlink:href="#DejaVuSans-65"/>
      <use x="382.714844" xlink:href="#DejaVuSans-72"/>
      <use x="423.828125" xlink:href="#DejaVuSans-20"/>
      <use x="455.615234" xlink:href="#DejaVuSans-66"/>
      <use x="490.820312" xlink:href="#DejaVuSans-75"/>
      <use x="554.199219" xlink:href="#DejaVuSans-6e"/>
      <use x="617.578125" xlink:href="#DejaVuSans-63"/>
      <use x="672.558594" xlink:href="#DejaVuSans-74"/>
      <use x="711.767578" xlink:href="#DejaVuSans-69"/>
      <use x="739.550781" xlink:href="#DejaVuSans-6f"/>
      <use x="800.732422" xlink:href="#DejaVuSans-6e"/>
      <use x="864.111328" xlink:href="#DejaVuSans-20"/>
      <use x="895.898438" xlink:href="#DejaVuSans-63"/>
      <use x="950.878906" xlink:href="#DejaVuSans-61"/>
      <use x="1012.158203" xlink:href="#DejaVuSans-6c"/>
      <use x="1039.941406" xlink:href="#DejaVuSans-6c"/>
      <use x="1067.724609" xlink:href="#DejaVuSans-20"/>
      <use x="1099.511719" xlink:href="#DejaVuSans-28"/>
      <use x="1138.525391" xlink:href="#DejaVuSans-73"/>
      <use x="1190.625" xlink:href="#DejaVuSans-65"/>
      <use x="1252.148438" xlink:href="#DejaVuSans-63"/>
      <use x="1307.128906" xlink:href="#DejaVuSans-29"/>
     </g>
    </g>
   </g>
   <g id="PathCollection_1">
    <defs>
     <path d="M 0 3.25 
C 0.86191 3.25 1.688635 2.907559 2.298097 2.298097 
C 2.907559 1.688635 3.25 0.86191 3.25 0 
C 3.25 -0.86191 2.907559 -1.688635 2.298097 -2.298097 
C 1.688635 -2.907559 0.86191 -3.25 0 -3.25 
C -0.86191 -3.25 -1.688635 -2.907559 -2.298097 -2.298097 
C -2.907559 -1.688635 -3.25 -0.86191 -3.25 0 
C -3.25 0.86191 -2.907559 1.688635 -2.298097 2.298097 
C -1.688635 2.907559 -0.86191 3.25 0 3.25 
z
" id="maa1453bac9" style="stroke:#000000;stroke-width:0.5;"/>
    </defs>
    <g clip-path="url(#pa19f1d8e3d)">
     <use style="fill:#ff0000;stroke:#000000;stroke-width:0.5;" x="51.917535" xlink:href="#maa1453bac9" y="157.9073"/>
     <use style="fill:#ff0000;stroke:#000000;stroke-width:0.5;" x="94.440284" xlink:href="#maa1453bac9" y="133.010615"/>
     <use style="fill:#ff0000;stroke:#000000;stroke-width:0.5;" x="136.963032" xlink:href="#maa1453bac9" y="107.042912"/>
     <use style="fill:#ff0000;stroke:#000000;stroke-width:0.5;" x="179.485781" xlink:href="#maa1453bac9" y="81.561474"/>
     <use style="fill:#ff0000;stroke:#000000;stroke-width:0.5;" x="222.00853" xlink:href="#maa1453bac9" y="59.08346"/>
    </g>
   </g>
   <g id="line2d_34">
    <path clip-path="url(#pa19f1d8e3d)" d="M 51.917535 157.9073 
L 94.440284 131.342576 
L 136.963032 105.93325 
L 179.485781 81.157016 
L 222.00853 56.781227 
" style="fill:none;stroke:#ff0000;stroke-dasharray:7.4,3.2;stroke-dashoffset:0;stroke-width:2;"/>
   </g>
   <g id="patch_3">
    <path d="M 39.160711 162.753354 
L 39.160711 18.194646 
" style="fill:none;stroke:#000000;stroke-linecap:square;stroke-linejoin:miter;stroke-width:0.8;"/>
   </g>
   <g id="patch_4">
    <path d="M 234.765354 162.753354 
L 234.765354 18.194646 
" style="fill:none;stroke:#000000;stroke-linecap:square;stroke-linejoin:miter;stroke-width:0.8;"/>
   </g>
   <g id="patch_5">
    <path d="M 39.160711 162.753354 
L 234.765354 162.753354 
" style="fill:none;stroke:#000000;stroke-linecap:square;stroke-linejoin:miter;stroke-width:0.8;"/>
   </g>
   <g id="patch_6">
    <path d="M 39.160711 18.194646 
L 234.765354 18.194646 
" style="fill:none;stroke:#000000;stroke-linecap:square;stroke-linejoin:miter;stroke-width:0.8;"/>
   </g>
   <g id="text_14">
    <!-- Timings -->
    <defs>
     <path d="M -0.296875 72.90625 
L 61.375 72.90625 
L 61.375 64.59375 
L 35.5 64.59375 
L 35.5 0 
L 25.59375 0 
L 25.59375 64.59375 
L -0.296875 64.59375 
z
" id="DejaVuSans-54"/>
     <path d="M 45.40625 27.984375 
Q 45.40625 37.75 41.375 43.109375 
Q 37.359375 48.484375 30.078125 48.484375 
Q 22.859375 48.484375 18.828125 43.109375 
Q 14.796875 37.75 14.796875 27.984375 
Q 14.796875 18.265625 18.828125 12.890625 
Q 22.859375 7.515625 30.078125 7.515625 
Q 37.359375 7.515625 41.375 12.890625 
Q 45.40625 18.265625 45.40625 27.984375 
z
M 54.390625 6.78125 
Q 54.390625 -7.171875 48.1875 -13.984375 
Q 42 -20.796875 29.203125 -20.796875 
Q 24.46875 -20.796875 20.265625 -20.09375 
Q 16.0625 -19.390625 12.109375 -17.921875 
L 12.109375 -9.1875 
Q 16.0625 -11.328125 19.921875 -12.34375 
Q 23.78125 -13.375 27.78125 -13.375 
Q 36.625 -13.375 41.015625 -8.765625 
Q 45.40625 -4.15625 45.40625 5.171875 
L 45.40625 9.625 
Q 42.625 4.78125 38.28125 2.390625 
Q 33.9375 0 27.875 0 
Q 17.828125 0 11.671875 7.65625 
Q 5.515625 15.328125 5.515625 27.984375 
Q 5.515625 40.671875 11.671875 48.328125 
Q 17.828125 56 27.875 56 
Q 33.9375 56 38.28125 53.609375 
Q 42.625 51.21875 45.40625 46.390625 
L 45.40625 54.6875 
L 54.390625 54.6875 
z
" id="DejaVuSans-67"/>
    </defs>
    <g transform="translate(109.456314 12.194646)scale(0.14 -0.14)">
     <use xlink:href="#DejaVuSans-54"/>
     <use x="61.037109" xlink:href="#DejaVuSans-69"/>
     <use x="88.820312" xlink:href="#DejaVuSans-6d"/>
     <use x="186.232422" xlink:href="#DejaVuSans-69"/>
     <use x="214.015625" xlink:href="#DejaVuSans-6e"/>
     <use x="277.394531" xlink:href="#DejaVuSans-67"/>
     <use x="340.871094" xlink:href="#DejaVuSans-73"/>
    </g>
   </g>
   <g id="PathCollection_2">
    <defs>
     <path d="M 0 3.25 
C 0.86191 3.25 1.688635 2.907559 2.298097 2.298097 
C 2.907559 1.688635 3.25 0.86191 3.25 0 
C 3.25 -0.86191 2.907559 -1.688635 2.298097 -2.298097 
C 1.688635 -2.907559 0.86191 -3.25 0 -3.25 
C -0.86191 -3.25 -1.688635 -2.907559 -2.298097 -2.298097 
C -2.907559 -1.688635 -3.25 -0.86191 -3.25 0 
C -3.25 0.86191 -2.907559 1.688635 -2.298097 2.298097 
C -1.688635 2.907559 -0.86191 3.25 0 3.25 
z
" id="m66277a4a62" style="stroke:#000000;stroke-width:0.5;"/>
    </defs>
    <g clip-path="url(#pa19f1d8e3d)">
     <use style="fill:#0000ff;stroke:#000000;stroke-width:0.5;" x="51.917535" xlink:href="#m66277a4a62" y="148.398962"/>
     <use style="fill:#0000ff;stroke:#000000;stroke-width:0.5;" x="94.440284" xlink:href="#m66277a4a62" y="120.902738"/>
     <use style="fill:#0000ff;stroke:#000000;stroke-width:0.5;" x="136.963032" xlink:href="#m66277a4a62" y="93.846863"/>
     <use style="fill:#0000ff;stroke:#000000;stroke-width:0.5;" x="179.485781" xlink:href="#m66277a4a62" y="69.657795"/>
     <use style="fill:#0000ff;stroke:#000000;stroke-width:0.5;" x="222.00853" xlink:href="#m66277a4a62" y="47.098851"/>
    </g>
   </g>
   <g id="line2d_35">
    <path clip-path="url(#pa19f1d8e3d)" d="M 51.917535 148.398962 
L 94.440284 121.834238 
L 136.963032 96.424911 
L 179.485781 71.648678 
L 222.00853 47.272889 
" style="fill:none;stroke:#0000ff;stroke-dasharray:7.4,3.2;stroke-dashoffset:0;stroke-width:2;"/>
   </g>
   <g id="PathCollection_3">
    <defs>
     <path d="M 0 3.25 
C 0.86191 3.25 1.688635 2.907559 2.298097 2.298097 
C 2.907559 1.688635 3.25 0.86191 3.25 0 
C 3.25 -0.86191 2.907559 -1.688635 2.298097 -2.298097 
C 1.688635 -2.907559 0.86191 -3.25 0 -3.25 
C -0.86191 -3.25 -1.688635 -2.907559 -2.298097 -2.298097 
C -2.907559 -1.688635 -3.25 -0.86191 -3.25 0 
C -3.25 0.86191 -2.907559 1.688635 -2.298097 2.298097 
C -1.688635 2.907559 -0.86191 3.25 0 3.25 
z
" id="m0fcac852c4" style="stroke:#000000;stroke-width:0.5;"/>
    </defs>
    <g clip-path="url(#pa19f1d8e3d)">
     <use style="fill:#008000;stroke:#000000;stroke-width:0.5;" x="51.917535" xlink:href="#m0fcac852c4" y="140.325967"/>
     <use style="fill:#008000;stroke:#000000;stroke-width:0.5;" x="94.440284" xlink:href="#m0fcac852c4" y="109.969348"/>
     <use style="fill:#008000;stroke:#000000;stroke-width:0.5;" x="136.963032" xlink:href="#m0fcac852c4" y="81.849811"/>
     <use style="fill:#008000;stroke:#000000;stroke-width:0.5;" x="179.485781" xlink:href="#m0fcac852c4" y="57.41261"/>
     <use style="fill:#008000;stroke:#000000;stroke-width:0.5;" x="222.00853" xlink:href="#m0fcac852c4" y="30.734328"/>
    </g>
   </g>
   <g id="line2d_36">
    <path clip-path="url(#pa19f1d8e3d)" d="M 51.917535 140.325967 
L 94.440284 109.783818 
L 136.963032 81.552462 
L 179.485781 54.587293 
L 222.00853 28.423014 
" style="fill:none;stroke:#008000;stroke-dasharray:7.4,3.2;stroke-dashoffset:0;stroke-width:2;"/>
   </g>
   <g id="PathCollection_4">
    <g clip-path="url(#pa19f1d8e3d)">
     <use style="fill:#ff0000;stroke:#000000;stroke-width:0.5;" x="51.917535" xlink:href="#maa1453bac9" y="157.9073"/>
     <use style="fill:#ff0000;stroke:#000000;stroke-width:0.5;" x="94.440284" xlink:href="#maa1453bac9" y="133.010615"/>
     <use style="fill:#ff0000;stroke:#000000;stroke-width:0.5;" x="136.963032" xlink:href="#maa1453bac9" y="107.042912"/>
     <use style="fill:#ff0000;stroke:#000000;stroke-width:0.5;" x="179.485781" xlink:href="#maa1453bac9" y="81.561474"/>
     <use style="fill:#ff0000;stroke:#000000;stroke-width:0.5;" x="222.00853" xlink:href="#maa1453bac9" y="59.08346"/>
    </g>
   </g>
   <g id="PathCollection_5">
    <g clip-path="url(#pa19f1d8e3d)">
     <use style="fill:#0000ff;stroke:#000000;stroke-width:0.5;" x="51.917535" xlink:href="#m66277a4a62" y="148.398962"/>
     <use style="fill:#0000ff;stroke:#000000;stroke-width:0.5;" x="94.440284" xlink:href="#m66277a4a62" y="120.902738"/>
     <use style="fill:#0000ff;stroke:#000000;stroke-width:0.5;" x="136.963032" xlink:href="#m66277a4a62" y="93.846863"/>
     <use style="fill:#0000ff;stroke:#000000;stroke-width:0.5;" x="179.485781" xlink:href="#m66277a4a62" y="69.657795"/>
     <use style="fill:#0000ff;stroke:#000000;stroke-width:0.5;" x="222.00853" xlink:href="#m66277a4a62" y="47.098851"/>
    </g>
   </g>
   <g id="PathCollection_6">
    <g clip-path="url(#pa19f1d8e3d)">
     <use style="fill:#008000;stroke:#000000;stroke-width:0.5;" x="51.917535" xlink:href="#m0fcac852c4" y="140.325967"/>
     <use style="fill:#008000;stroke:#000000;stroke-width:0.5;" x="94.440284" xlink:href="#m0fcac852c4" y="109.969348"/>
     <use style="fill:#008000;stroke:#000000;stroke-width:0.5;" x="136.963032" xlink:href="#m0fcac852c4" y="81.849811"/>
     <use style="fill:#008000;stroke:#000000;stroke-width:0.5;" x="179.485781" xlink:href="#m0fcac852c4" y="57.41261"/>
     <use style="fill:#008000;stroke:#000000;stroke-width:0.5;" x="222.00853" xlink:href="#m0fcac852c4" y="30.734328"/>
    </g>
   </g>
   <g id="legend_1">
    <g id="patch_7">
     <path d="M 44.760711 97.182146 
L 142.115711 97.182146 
Q 143.715711 97.182146 143.715711 95.582146 
L 143.715711 23.794646 
Q 143.715711 22.194646 142.115711 22.194646 
L 44.760711 22.194646 
Q 43.160711 22.194646 43.160711 23.794646 
L 43.160711 95.582146 
Q 43.160711 97.182146 44.760711 97.182146 
z
" style="fill:#ffffff;stroke:#000000;stroke-linejoin:miter;"/>
    </g>
    <g id="PathCollection_7">
     <g>
      <use style="fill:#ff0000;stroke:#000000;stroke-width:0.5;" x="54.360711" xlink:href="#maa1453bac9" y="29.373396"/>
     </g>
    </g>
    <g id="text_15">
     <!-- objective function -->
     <defs>
      <path d="M 9.421875 54.6875 
L 18.40625 54.6875 
L 18.40625 -0.984375 
Q 18.40625 -11.421875 14.421875 -16.109375 
Q 10.453125 -20.796875 1.609375 -20.796875 
L -1.8125 -20.796875 
L -1.8125 -13.1875 
L 0.59375 -13.1875 
Q 5.71875 -13.1875 7.5625 -10.8125 
Q 9.421875 -8.453125 9.421875 -0.984375 
z
M 9.421875 75.984375 
L 18.40625 75.984375 
L 18.40625 64.59375 
L 9.421875 64.59375 
z
" id="DejaVuSans-6a"/>
     </defs>
     <g transform="translate(68.760711 31.473396)scale(0.08 -0.08)">
      <use xlink:href="#DejaVuSans-6f"/>
      <use x="61.181641" xlink:href="#DejaVuSans-62"/>
      <use x="124.658203" xlink:href="#DejaVuSans-6a"/>
      <use x="152.441406" xlink:href="#DejaVuSans-65"/>
      <use x="213.964844" xlink:href="#DejaVuSans-63"/>
      <use x="268.945312" xlink:href="#DejaVuSans-74"/>
      <use x="308.154297" xlink:href="#DejaVuSans-69"/>
      <use x="335.9375" xlink:href="#DejaVuSans-76"/>
      <use x="395.117188" xlink:href="#DejaVuSans-65"/>
      <use x="456.640625" xlink:href="#DejaVuSans-20"/>
      <use x="488.427734" xlink:href="#DejaVuSans-66"/>
      <use x="523.632812" xlink:href="#DejaVuSans-75"/>
      <use x="587.011719" xlink:href="#DejaVuSans-6e"/>
      <use x="650.390625" xlink:href="#DejaVuSans-63"/>
      <use x="705.371094" xlink:href="#DejaVuSans-74"/>
      <use x="744.580078" xlink:href="#DejaVuSans-69"/>
      <use x="772.363281" xlink:href="#DejaVuSans-6f"/>
      <use x="833.544922" xlink:href="#DejaVuSans-6e"/>
     </g>
    </g>
    <g id="line2d_37">
     <path d="M 46.360711 40.497146 
L 62.360711 40.497146 
" style="fill:none;stroke:#ff0000;stroke-dasharray:7.4,3.2;stroke-dashoffset:0;stroke-width:2;"/>
    </g>
    <g id="line2d_38"/>
    <g id="text_16">
     <!-- $\mathcal{O}\left(|V| \cdot \log |V|\right)$ -->
     <defs>
      <path d="M 36 66.203125 
L 36.59375 63.90625 
Q 27.703125 61.296875 21.09375 49.34375 
Q 14.5 37.40625 14.5 23 
Q 14.5 13.09375 19 8.046875 
Q 23.5 3 31 3 
Q 36.703125 3 42.796875 6.796875 
Q 48.90625 10.59375 53.59375 17.203125 
Q 62 29.09375 62 46 
Q 62 53.09375 58.5 57.1875 
Q 55 61.296875 50.296875 61.296875 
Q 45.59375 61.296875 42.046875 58.25 
Q 38.5 55.203125 38.5 50.5 
Q 38.5 46.796875 42.09375 46.796875 
Q 42.40625 46.796875 43.5 47.046875 
Q 44.59375 47.296875 45.59375 47.296875 
Q 48.5 47.296875 48.5 44 
Q 48.5 41.203125 46 39 
Q 43.5 36.796875 40.5 36.796875 
Q 36.296875 36.796875 34.046875 39.59375 
Q 31.796875 42.40625 31.796875 46.796875 
Q 31.796875 54.296875 39.140625 60.59375 
Q 46.5 66.90625 55.796875 66.90625 
Q 64 66.90625 68.453125 60.65625 
Q 72.90625 54.40625 72.90625 45.90625 
Q 72.90625 37.5 69.09375 28.703125 
Q 65.296875 19.90625 59.5 13.703125 
Q 45.796875 -1 27.40625 -1 
Q 17.203125 -1 10.5 4.75 
Q 3.796875 10.5 3.796875 21.296875 
Q 3.796875 30.203125 6.796875 38.390625 
Q 9.796875 46.59375 14.546875 52.296875 
Q 19.296875 58 24.9375 61.703125 
Q 30.59375 65.40625 36 66.203125 
z
" id="STIXNonUnicode-Italic-e23b"/>
      <path d="M 21 76.421875 
L 21 -23.578125 
L 12.703125 -23.578125 
L 12.703125 76.421875 
z
" id="DejaVuSans-7c"/>
      <path d="M 20.609375 0 
L 7.8125 72.90625 
L 17.484375 72.90625 
L 28.078125 10.203125 
L 63.484375 72.90625 
L 74.21875 72.90625 
L 32.078125 0 
z
" id="DejaVuSans-Oblique-56"/>
      <path d="M 10.6875 40.921875 
L 21 40.921875 
L 21 28.515625 
L 10.6875 28.515625 
z
" id="DejaVuSans-22c5"/>
     </defs>
     <g transform="translate(68.760711 43.297146)scale(0.08 -0.08)">
      <use transform="translate(0 0.578125)" xlink:href="#STIXNonUnicode-Italic-e23b"/>
      <use transform="translate(73.699982 0.578125)" xlink:href="#DejaVuSans-28"/>
      <use transform="translate(112.713654 0.578125)" xlink:href="#DejaVuSans-7c"/>
      <use transform="translate(146.40506 0.578125)" xlink:href="#DejaVuSans-Oblique-56"/>
      <use transform="translate(214.813263 0.578125)" xlink:href="#DejaVuSans-7c"/>
      <use transform="translate(267.987091 0.578125)" xlink:href="#DejaVuSans-22c5"/>
      <use transform="translate(319.256622 0.578125)" xlink:href="#DejaVuSans-6c"/>
      <use transform="translate(347.039825 0.578125)" xlink:href="#DejaVuSans-6f"/>
      <use transform="translate(408.221466 0.578125)" xlink:href="#DejaVuSans-67"/>
      <use transform="translate(471.698029 0.578125)" xlink:href="#DejaVuSans-7c"/>
      <use transform="translate(505.389435 0.578125)" xlink:href="#DejaVuSans-Oblique-56"/>
      <use transform="translate(573.797638 0.578125)" xlink:href="#DejaVuSans-7c"/>
      <use transform="translate(607.489044 0.578125)" xlink:href="#DejaVuSans-29"/>
     </g>
    </g>
    <g id="PathCollection_8">
     <g>
      <use style="fill:#0000ff;stroke:#000000;stroke-width:0.5;" x="54.360711" xlink:href="#m66277a4a62" y="53.195896"/>
     </g>
    </g>
    <g id="text_17">
     <!-- derivatives -->
     <defs>
      <path d="M 45.40625 46.390625 
L 45.40625 75.984375 
L 54.390625 75.984375 
L 54.390625 0 
L 45.40625 0 
L 45.40625 8.203125 
Q 42.578125 3.328125 38.25 0.953125 
Q 33.9375 -1.421875 27.875 -1.421875 
Q 17.96875 -1.421875 11.734375 6.484375 
Q 5.515625 14.40625 5.515625 27.296875 
Q 5.515625 40.1875 11.734375 48.09375 
Q 17.96875 56 27.875 56 
Q 33.9375 56 38.25 53.625 
Q 42.578125 51.265625 45.40625 46.390625 
z
M 14.796875 27.296875 
Q 14.796875 17.390625 18.875 11.75 
Q 22.953125 6.109375 30.078125 6.109375 
Q 37.203125 6.109375 41.296875 11.75 
Q 45.40625 17.390625 45.40625 27.296875 
Q 45.40625 37.203125 41.296875 42.84375 
Q 37.203125 48.484375 30.078125 48.484375 
Q 22.953125 48.484375 18.875 42.84375 
Q 14.796875 37.203125 14.796875 27.296875 
z
" id="DejaVuSans-64"/>
     </defs>
     <g transform="translate(68.760711 55.295896)scale(0.08 -0.08)">
      <use xlink:href="#DejaVuSans-64"/>
      <use x="63.476562" xlink:href="#DejaVuSans-65"/>
      <use x="125" xlink:href="#DejaVuSans-72"/>
      <use x="166.113281" xlink:href="#DejaVuSans-69"/>
      <use x="193.896484" xlink:href="#DejaVuSans-76"/>
      <use x="253.076172" xlink:href="#DejaVuSans-61"/>
      <use x="314.355469" xlink:href="#DejaVuSans-74"/>
      <use x="353.564453" xlink:href="#DejaVuSans-69"/>
      <use x="381.347656" xlink:href="#DejaVuSans-76"/>
      <use x="440.527344" xlink:href="#DejaVuSans-65"/>
      <use x="502.050781" xlink:href="#DejaVuSans-73"/>
     </g>
    </g>
    <g id="line2d_39">
     <path d="M 46.360711 64.319646 
L 62.360711 64.319646 
" style="fill:none;stroke:#0000ff;stroke-dasharray:7.4,3.2;stroke-dashoffset:0;stroke-width:2;"/>
    </g>
    <g id="line2d_40"/>
    <g id="text_18">
     <!-- $\mathcal{O}\left(|V| \cdot \log |V|\right)$ -->
     <g transform="translate(68.760711 67.119646)scale(0.08 -0.08)">
      <use transform="translate(0 0.578125)" xlink:href="#STIXNonUnicode-Italic-e23b"/>
      <use transform="translate(73.699982 0.578125)" xlink:href="#DejaVuSans-28"/>
      <use transform="translate(112.713654 0.578125)" xlink:href="#DejaVuSans-7c"/>
      <use transform="translate(146.40506 0.578125)" xlink:href="#DejaVuSans-Oblique-56"/>
      <use transform="translate(214.813263 0.578125)" xlink:href="#DejaVuSans-7c"/>
      <use transform="translate(267.987091 0.578125)" xlink:href="#DejaVuSans-22c5"/>
      <use transform="translate(319.256622 0.578125)" xlink:href="#DejaVuSans-6c"/>
      <use transform="translate(347.039825 0.578125)" xlink:href="#DejaVuSans-6f"/>
      <use transform="translate(408.221466 0.578125)" xlink:href="#DejaVuSans-67"/>
      <use transform="translate(471.698029 0.578125)" xlink:href="#DejaVuSans-7c"/>
      <use transform="translate(505.389435 0.578125)" xlink:href="#DejaVuSans-Oblique-56"/>
      <use transform="translate(573.797638 0.578125)" xlink:href="#DejaVuSans-7c"/>
      <use transform="translate(607.489044 0.578125)" xlink:href="#DejaVuSans-29"/>
     </g>
    </g>
    <g id="PathCollection_9">
     <g>
      <use style="fill:#008000;stroke:#000000;stroke-width:0.5;" x="54.360711" xlink:href="#m0fcac852c4" y="77.018396"/>
     </g>
    </g>
    <g id="text_19">
     <!-- generate network -->
     <defs>
      <path d="M 4.203125 54.6875 
L 13.1875 54.6875 
L 24.421875 12.015625 
L 35.59375 54.6875 
L 46.1875 54.6875 
L 57.421875 12.015625 
L 68.609375 54.6875 
L 77.59375 54.6875 
L 63.28125 0 
L 52.6875 0 
L 40.921875 44.828125 
L 29.109375 0 
L 18.5 0 
z
" id="DejaVuSans-77"/>
      <path d="M 9.078125 75.984375 
L 18.109375 75.984375 
L 18.109375 31.109375 
L 44.921875 54.6875 
L 56.390625 54.6875 
L 27.390625 29.109375 
L 57.625 0 
L 45.90625 0 
L 18.109375 26.703125 
L 18.109375 0 
L 9.078125 0 
z
" id="DejaVuSans-6b"/>
     </defs>
     <g transform="translate(68.760711 79.118396)scale(0.08 -0.08)">
      <use xlink:href="#DejaVuSans-67"/>
      <use x="63.476562" xlink:href="#DejaVuSans-65"/>
      <use x="125" xlink:href="#DejaVuSans-6e"/>
      <use x="188.378906" xlink:href="#DejaVuSans-65"/>
      <use x="249.902344" xlink:href="#DejaVuSans-72"/>
      <use x="291.015625" xlink:href="#DejaVuSans-61"/>
      <use x="352.294922" xlink:href="#DejaVuSans-74"/>
      <use x="391.503906" xlink:href="#DejaVuSans-65"/>
      <use x="453.027344" xlink:href="#DejaVuSans-20"/>
      <use x="484.814453" xlink:href="#DejaVuSans-6e"/>
      <use x="548.193359" xlink:href="#DejaVuSans-65"/>
      <use x="609.716797" xlink:href="#DejaVuSans-74"/>
      <use x="648.925781" xlink:href="#DejaVuSans-77"/>
      <use x="730.712891" xlink:href="#DejaVuSans-6f"/>
      <use x="791.894531" xlink:href="#DejaVuSans-72"/>
      <use x="833.007812" xlink:href="#DejaVuSans-6b"/>
     </g>
    </g>
    <g id="line2d_41">
     <path d="M 46.360711 89.262146 
L 62.360711 89.262146 
" style="fill:none;stroke:#008000;stroke-dasharray:7.4,3.2;stroke-dashoffset:0;stroke-width:2;"/>
    </g>
    <g id="line2d_42"/>
    <g id="text_20">
     <!-- $\mathcal{O}\left(|V| \cdot (\log |V|)^2\right)$ -->
     <defs>
      <path d="M 38.203125 -13.40625 
L 38.203125 -16.40625 
Q 27 -5.796875 20.453125 9.84375 
Q 13.90625 25.5 13.90625 45.09375 
Q 13.90625 64.40625 20.453125 80.25 
Q 27 96.09375 38.203125 106.59375 
L 38.203125 103.59375 
Q 22 83.796875 22 45.09375 
Q 22 6.40625 38.203125 -13.40625 
z
" id="STIXSizeOneSym-Regular-28"/>
      <path d="M 8.59375 103.59375 
L 8.59375 106.59375 
Q 19.796875 96 26.34375 80.34375 
Q 32.90625 64.703125 32.90625 45.09375 
Q 32.90625 25.796875 26.34375 9.9375 
Q 19.796875 -5.90625 8.59375 -16.40625 
L 8.59375 -13.40625 
Q 24.796875 6.40625 24.796875 45.09375 
Q 24.796875 83.796875 8.59375 103.59375 
z
" id="STIXSizeOneSym-Regular-29"/>
     </defs>
     <g transform="translate(68.760711 92.062146)scale(0.08 -0.08)">
      <use transform="translate(0 0.1875)" xlink:href="#STIXNonUnicode-Italic-e23b"/>
      <use transform="translate(73.699982 -8.140625)scale(0.925305)" xlink:href="#STIXSizeOneSym-Regular-28"/>
      <use transform="translate(116.989975 0.1875)" xlink:href="#DejaVuSans-7c"/>
      <use transform="translate(150.681381 0.1875)" xlink:href="#DejaVuSans-Oblique-56"/>
      <use transform="translate(219.089584 0.1875)" xlink:href="#DejaVuSans-7c"/>
      <use transform="translate(272.263412 0.1875)" xlink:href="#DejaVuSans-22c5"/>
      <use transform="translate(323.532944 0.1875)" xlink:href="#DejaVuSans-28"/>
      <use transform="translate(362.546616 0.1875)" xlink:href="#DejaVuSans-6c"/>
      <use transform="translate(390.329819 0.1875)" xlink:href="#DejaVuSans-6f"/>
      <use transform="translate(451.511459 0.1875)" xlink:href="#DejaVuSans-67"/>
      <use transform="translate(514.988022 0.1875)" xlink:href="#DejaVuSans-7c"/>
      <use transform="translate(548.679428 0.1875)" xlink:href="#DejaVuSans-Oblique-56"/>
      <use transform="translate(617.087631 0.1875)" xlink:href="#DejaVuSans-7c"/>
      <use transform="translate(650.779037 0.1875)" xlink:href="#DejaVuSans-29"/>
      <use transform="translate(690.749741 38.46875)scale(0.7)" xlink:href="#DejaVuSans-32"/>
      <use transform="translate(738.020248 -8.140625)scale(0.925305)" xlink:href="#STIXSizeOneSym-Regular-29"/>
     </g>
    </g>
   </g>
  </g>
 </g>
 <defs>
  <clipPath id="pa19f1d8e3d">
   <rect height="144.558709" width="195.604644" x="39.160711" y="18.194646"/>
  </clipPath>
 </defs>
</svg>
